<?xml version="1.0" encoding="UTF-8"?>
<!DOCTYPE svg PUBLIC "-//W3C//DTD SVG 1.1//EN" "http://www.w3.org/Graphics/SVG/1.1/DTD/svg11.dtd">
<!-- Creator: CorelDRAW 2019 -->
<svg xmlns="http://www.w3.org/2000/svg" xml:space="preserve" width="163.362mm" height="162.824mm" version="1.1" style="shape-rendering:geometricPrecision; text-rendering:geometricPrecision; image-rendering:optimizeQuality; fill-rule:evenodd; clip-rule:evenodd"
viewBox="0 0 4180.23 4166.47"
 xmlns:xlink="http://www.w3.org/1999/xlink"
 xmlns:xodm="http://www.corel.com/coreldraw/odm/2003">
 <defs>
  <style type="text/css">
   <![CDATA[
    .str0 {stroke:#2B2A29;stroke-width:5.12;stroke-miterlimit:22.9256}
    .fil35 {fill:#EBECEC}
    .fil37 {fill:#2B2A29}
    .fil36 {fill:#E31E24}
    .fil10 {fill:#D9DADA;fill-rule:nonzero}
    .fil18 {fill:#FFED00;fill-rule:nonzero}
    .fil16 {fill:#E31E24;fill-rule:nonzero}
    .fil17 {fill:#47AE55;fill-rule:nonzero}
    .fil34 {fill:#155EA8;fill-rule:nonzero}
    .fil33 {fill:#155EA8;fill-rule:nonzero}
    .fil20 {fill:#0796D4;fill-rule:nonzero}
    .fil7 {fill:#263138;fill-rule:nonzero}
    .fil2 {fill:#26DDBF;fill-rule:nonzero}
    .fil6 {fill:#36464F;fill-rule:nonzero}
    .fil8 {fill:#445964;fill-rule:nonzero}
    .fil5 {fill:#4DB9E8;fill-rule:nonzero}
    .fil1 {fill:#DFDFDF;fill-rule:nonzero}
    .fil12 {fill:#EBEBEB;fill-rule:nonzero}
    .fil0 {fill:#EFEFEF;fill-rule:nonzero}
    .fil32 {fill:#F28E8E;fill-rule:nonzero}
    .fil31 {fill:#F4F4F4;fill-rule:nonzero}
    .fil19 {fill:#F9F9F9;fill-rule:nonzero}
    .fil30 {fill:#FFA8A7;fill-rule:nonzero}
    .fil4 {fill:white;fill-rule:nonzero}
    .fil26 {fill:black;fill-rule:nonzero;fill-opacity:0.101961}
    .fil29 {fill:#004766;fill-rule:nonzero;fill-opacity:0.101961}
    .fil9 {fill:black;fill-rule:nonzero;fill-opacity:0.149020}
    .fil3 {fill:#155EA8;fill-rule:nonzero;fill-opacity:0.200000}
    .fil22 {fill:black;fill-rule:nonzero;fill-opacity:0.301961}
    .fil24 {fill:#26DDBF;fill-rule:nonzero;fill-opacity:0.301961}
    .fil25 {fill:#445964;fill-rule:nonzero;fill-opacity:0.301961}
    .fil23 {fill:#DFDFDF;fill-rule:nonzero;fill-opacity:0.301961}
    .fil27 {fill:white;fill-rule:nonzero;fill-opacity:0.301961}
    .fil28 {fill:#4DB9E8;fill-rule:nonzero;fill-opacity:0.400000}
    .fil21 {fill:#0796D4;fill-rule:nonzero;fill-opacity:0.800000}
    .fil11 {fill:#445964;fill-rule:nonzero;fill-opacity:0.800000}
    .fil15 {fill:#004766;fill-rule:nonzero}
    .fil13 {fill:#0796D4;fill-rule:nonzero}
    .fil14 {fill:#4DB9E8;fill-rule:nonzero}
   ]]>
  </style>
 </defs>
 <g id="Layer_x0020_1">
  <metadata id="CorelCorpID_0Corel-Layer"/>
  <path class="fil0" d="M3568.05 2106.45c816.24,471.26 816.23,1235.31 -0.01,1706.57 -816.24,471.26 -2139.63,471.26 -2955.87,0.01 -816.24,-471.26 -816.24,-1235.31 0.01,-1706.57 816.24,-471.26 2139.63,-471.26 2955.87,-0.01z"/>
  <path class="fil1" d="M2758.95 3277.85c0.63,-18.88 -5.9,-40.19 -16.69,-58.69 -0,0 -0,0 -0.01,-0 -2.21,-3.8 -4.61,-7.46 -7.16,-10.97 -0.13,-0.17 -0.25,-0.34 -0.37,-0.51 -2.48,-3.37 -5.09,-6.59 -7.84,-9.61 -0.24,-0.27 -0.49,-0.52 -0.73,-0.79 -2.71,-2.93 -5.53,-5.69 -8.46,-8.19 -0.26,-0.22 -0.52,-0.42 -0.79,-0.63 -3.01,-2.52 -6.1,-4.84 -9.28,-6.82 -1.82,-1.13 -3.62,-2.14 -5.4,-3.04 -0.83,-0.42 -1.63,-0.72 -2.45,-1.08 -0.94,-0.42 -1.89,-0.89 -2.81,-1.24 -1.36,-0.52 -2.68,-0.91 -4.01,-1.28 -0.36,-0.1 -0.73,-0.25 -1.08,-0.35 -1.57,-0.41 -3.12,-0.7 -4.63,-0.9 -0.09,-0.01 -0.19,-0.04 -0.28,-0.05 -6.4,-0.83 -12.24,0.1 -17.24,2.64 -0.01,0 -0.01,0.01 -0.02,0.01 -0.03,0.02 -0.07,0.03 -0.1,0.04l-0.02 -0.03c-47.74,23.96 -322.92,199.02 -449.55,277.95l-62.75 38.09c-1.83,0.98 -3.32,2.55 -4.63,4.38 -0.16,0.22 -0.32,0.45 -0.47,0.68 -0.53,0.83 -1.02,1.71 -1.43,2.69 -0.26,0.59 -0.46,1.25 -0.67,1.89 -0.26,0.8 -0.54,1.56 -0.72,2.44 -0.12,0.52 -0.17,1.1 -0.26,1.65 -2.89,1.56 -6.41,3.47 -10.37,5.68l-9.27 5.01c-19.82,-19.17 -43.75,-36.98 -71.57,-53.05 -86.8,-50.11 -201.81,-77.71 -323.86,-77.71 -122.05,0 -237.07,27.6 -323.85,77.71 -89.92,51.91 -139.44,122.03 -139.44,197.41 0,75.38 49.52,145.48 139.43,197.4 86.8,50.11 201.82,77.71 323.86,77.71 122.05,0 237.07,-27.6 323.86,-77.71 89.92,-51.91 139.43,-122.02 139.43,-197.4 0,-33.99 -10.15,-66.88 -29.45,-97.54l8.28 -4.48c6.82,3.75 13.08,4.26 17.77,1.73l0.39 -0.2c42.98,-23.67 461.85,-202.17 547.48,-248.1 0.01,-0.01 0.02,-0.01 0.02,-0.01 0.02,-0.01 0.03,-0.02 0.05,-0.03l-0 -0.01c10.02,-5.38 16.5,-17.37 17.09,-34.72zm-740.65 512.17l0 0c-74.96,43.28 -175.92,67.11 -284.28,67.11 -108.37,0 -209.32,-23.84 -284.27,-67.11 -64.39,-37.17 -99.84,-82.93 -99.84,-128.83 0,-45.92 35.46,-91.68 99.84,-128.85 74.94,-43.28 175.9,-67.1 284.27,-67.1 108.38,0 209.33,23.83 284.28,67.1 64.39,37.17 99.84,82.93 99.84,128.85 0,45.9 -35.45,91.66 -99.84,128.83z"/>
  <path class="fil1" d="M2822.92 2217.42l-424.89 -245.82c-21.59,-12.46 -56.59,-12.46 -78.18,0l-2158.27 1246.08c-21.59,12.46 -21.59,32.67 0,45.14l424.87 245.82c21.59,12.46 56.59,12.46 78.18,0l808.82 -466.97 124.32 72.27c65.83,38.01 172.58,38.02 238.42,0.03l370.62 -212.41c65.85,-37.99 65.85,-99.61 0.02,-137.62l-124.23 -72.23 740.32 -429.15c21.59,-12.46 21.59,-32.67 0,-45.13z"/>
  <path class="fil1" d="M3830.28 2970.42c162.7,93.93 162.7,246.23 0,340.16 -162.7,93.93 -426.48,93.93 -589.18,0 -162.7,-93.93 -162.69,-246.23 0,-340.16 162.7,-93.93 426.48,-93.93 589.18,0z"/>
  <g id="_1057124824">
   <path class="fil2" d="M3772.34 2868.89c0.06,-56.38 -11.2,-160.33 36.53,-257.82 34.58,-70.63 96.47,-139.25 154.02,-132.43 53.6,6.36 58.46,88.75 7.2,145.18 -51.26,56.42 -116.51,134.45 -130.73,259.18l-36.91 92.56 -30.12 -106.67z"/>
  </g>
  <g id="_1057125520">
   <path class="fil3" d="M3772.34 2868.89c0.06,-56.38 -11.2,-160.33 36.53,-257.82 34.58,-70.63 96.47,-139.25 154.02,-132.43 53.6,6.36 58.46,88.75 7.2,145.18 -51.26,56.42 -116.51,134.45 -130.73,259.18l-36.91 92.56 -30.12 -106.67z"/>
  </g>
  <g id="_1057128520">
   <path class="fil4" d="M3791.55 2908.51c1.91,-0.33 3.32,-2.03 3.24,-4.01 -6.49,-160.35 45.69,-293.47 150.92,-384.95 1.63,-1.42 1.8,-3.89 0.39,-5.52 -1.43,-1.64 -3.9,-1.79 -5.52,-0.39 -107.09,93.1 -160.21,228.37 -153.61,391.17 0.09,2.16 1.91,3.85 4.07,3.76 0.18,-0.01 0.34,-0.03 0.52,-0.06z"/>
  </g>
  <path class="fil5" d="M3762.13 3070.51c0,0 38.82,26.16 99.16,27.59 60.34,1.44 82.63,-30.32 82.63,-30.32 0,0 -30.7,-52.3 -66.34,-63.35 0,0 58.44,3.97 108.19,28.32 0,0 36.15,-4.29 43.13,-61.28 0,0 -25.82,-30.27 -99.94,-38.56 0,0 42.17,-16.83 107.2,-9.22 4.96,1.24 15.52,-72.65 17.2,-106.32 1.68,-33.66 -11.48,-31.55 -38,-34.95 -26.53,-3.41 -114.31,3.98 -128.45,20.22 -14.15,16.23 -15.83,65.48 -15.83,65.48 0,0 -18.99,-25.2 -18.57,-50.01 0,0 -26.88,-5.28 -54.31,8.61 -27.43,13.88 -36.24,25 -37.6,46.07 -1.36,21.08 -3.14,52.58 5.31,77.05 0,0 -25,-40.29 -23.72,-75.35 0,0 -13.73,22.69 -25.51,53.38 -11.78,30.69 2.2,104.99 45.42,142.64z"/>
  <g id="_1057128160">
   <path class="fil4" d="M3763.15 3074.29c1.23,-0.33 2.28,-1.26 2.71,-2.57 34.35,-105.32 195.97,-244 257.74,-264.83 2.05,-0.69 3.15,-2.92 2.46,-4.96 -0.69,-2.04 -2.76,-3.25 -4.96,-2.46 -62.95,21.23 -227.69,162.54 -262.68,269.82 -0.67,2.06 0.45,4.27 2.51,4.94 0.75,0.24 1.53,0.25 2.23,0.06z"/>
  </g>
  <g id="_1057129048">
   <g>
    <path class="fil6" d="M1836.22 3078.12l319.33 -184.64c32.91,-19 49.37,-43.91 49.38,-68.81 0,-24.91 0.14,-44.42 0.14,-44.42l-300.48 -170.55c-17.55,-10.14 -31.78,-34.79 -31.78,-55.06l0 -393.7 -557.75 322.3 -0.02 393.7c0,20.27 14.23,44.92 31.79,55.06l251 146.13c65.84,38 172.57,38 238.41,-0.01z"/>
   </g>
   <path class="fil7" d="M1448.95 2946.65l0 44.23 -102.22 -58.91c-17.44,-10.09 -31.75,-34.69 -31.75,-55.06l0 -393.67 106.26 -61.3c2.2,26.98 4.59,54.88 6.78,82.04l-74.51 43.13 0 307.59c0,20.37 14.13,44.96 31.75,55.05l63.68 36.89z"/>
   <path class="fil8" d="M1353.5 2854.77c0,20.27 14.23,44.92 31.79,55.06l212.49 123.88c65.83,38.01 172.58,38.02 238.42,0.03l319.49 -184.62c65.85,-37.99 65.85,-99.61 0.02,-137.62l-212.64 -123.99c-17.56,-10.14 -31.79,-34.79 -31.79,-55.06l-0 -307.62 -557.77 322.29 0 307.64z"/>
   <path class="fil9" d="M2007.81 2624.95l0 -0.05 -64.74 -37.38c-17.56,-10.14 -31.79,-34.79 -31.79,-55.06l0 -307.62 -557.77 322.29 0 307.64c0,20.27 14.23,44.92 31.79,55.06l63.62 36.73 558.89 -321.62z"/>
   <path class="fil6" d="M2205.01 2780.28c0,0 0,19.45 0,44.41 0,24.96 -16.52,49.73 -49.37,68.82l-319.38 184.53c-31.56,18.35 -72.49,27.53 -113.79,28.27l0 -44.23c41.3,-0.55 82.22,-10.09 113.79,-28.26l319.38 -184.72c32.85,-18.9 49.37,-43.86 49.37,-68.82z"/>
  </g>
  <path class="fil8" d="M457.95 3279.5c20.58,11.88 55.07,11.25 77.01,-1.42 274.21,-158.32 1882.85,-1087.04 2157.02,-1245.33 21.94,-12.67 39.72,-43.48 39.72,-68.82l0 -1888.02c0,-25.34 -16.69,-55.52 -37.27,-67.4 -20.59,-11.88 -55.06,-11.25 -77.01,1.42l-2156.99 1245.34c-21.94,12.67 -39.73,43.48 -39.73,68.82l-0.03 1888.01c0,25.34 16.69,55.52 37.27,67.4z"/>
  <path class="fil6" d="M534.97 3278.03l2157.01 -1245.33c21.95,-12.67 39.73,-43.49 39.73,-68.82l0 -1888.02c0,-25.34 -17.79,-35.61 -39.73,-22.94l-2156.99 1245.33c-21.95,12.67 -39.74,43.48 -39.74,68.82l-0.03 1888.01c0,25.34 17.79,35.61 39.74,22.94z"/>
  <path class="fil10" d="M569.76 3005.69l0.02 -1613.86c0,-15.2 10.67,-33.69 23.84,-41.29l2039.66 -1177.6c13.17,-7.6 23.84,-1.44 23.84,13.77l0.07 1613.89c0,15.2 -10.67,33.69 -23.84,41.29l-2039.75 1177.57c-13.17,7.6 -23.84,1.44 -23.84,-13.77z"/>
  <path class="fil2" d="M1609.4 2578.96c-4.33,0.01 -8.36,-1.03 -11.96,-3.11 -8.5,-4.9 -13.18,-14.86 -13.18,-28.04 0,-25.61 17.37,-55.68 39.54,-68.49 11.43,-6.59 22.4,-7.5 30.87,-2.62 8.5,4.91 13.18,14.87 13.18,28.05 0.01,25.6 -17.36,55.68 -39.54,68.48 -6.58,3.8 -13.02,5.72 -18.92,5.72zm33.3 -96.31l0 0c-4.3,0 -9.2,1.51 -14.38,4.5 -19.31,11.15 -35.02,38.36 -35.02,60.67 0,9.82 3.08,17 8.66,20.22 5.58,3.21 13.35,2.29 21.85,-2.62 19.32,-11.15 35.03,-38.37 35.03,-60.66 0,-9.82 -3.08,-17 -8.67,-20.23 -2.19,-1.26 -4.71,-1.89 -7.47,-1.89z"/>
  <g id="_1057130536">
   <g>
    <path class="fil0" d="M3011.45 476.62l-2100.71 1211.41 0.01 1548.28c-0.01,20.6 22.31,33.58 40.16,23.28l37.44 -21.62 1983.93 -1143.92c21.57,-12.46 39.17,-42.77 39.17,-67.81l0 -1549.62z"/>
    <path class="fil1" d="M3002.42 492.25l0 1533.99c0,21.67 -15.87,49.15 -34.65,59.99l-1983.94 1143.92 -37.44 21.62c-2.76,1.59 -5.72,2.4 -8.78,2.4 -4.55,0 -9.08,-1.85 -12.43,-5.06 -3.49,-3.34 -5.4,-7.89 -5.4,-12.8l-0.01 -1543.06 2082.65 -1201zm9.03 -15.63l0 0 -2100.71 1211.41 0.01 1548.28c-0.01,15.64 12.86,26.89 26.86,26.89 4.44,0 9,-1.13 13.3,-3.61l37.44 -21.62 1983.93 -1143.92c21.57,-12.46 39.17,-42.77 39.17,-67.81l0 -1549.62z"/>
   </g>
   <polygon class="fil11" points="2961.62,447.86 860.78,1659.2 910.74,1688.04 3011.45,476.62 "/>
   <path class="fil12" d="M924.82 3259.96c0,0 -14.07,-6.89 -14.07,-23.64l-0.01 -1503.69c0,-12.33 0,-44.59 0,-44.59l-49.96 -28.84 -0.06 1539.71c0,1.9 0.13,3.81 0.38,5.71 1.78,12.69 9.27,23.98 20.44,30.33l41.25 23.86 2.03 1.14z"/>
  </g>
  <path class="fil2" d="M860.78 1659.87l0 -104.46c0,-12.46 8.72,-27.67 19.48,-33.95l2061.87 -1188.62c10.76,-6.29 28.24,-6.33 39.03,-0.1l10.74 6.2c10.8,6.23 19.54,21.39 19.54,33.85l0 104.64 -2100.71 1211.27 -49.96 -28.83z"/>
  <path class="fil13" d="M860.78 1659.87l0 -104.46c0,-12.46 8.72,-27.67 19.48,-33.95l2061.87 -1188.62c10.76,-6.29 28.24,-6.33 39.03,-0.1l10.74 6.2c10.8,6.23 19.54,21.39 19.54,33.85l0 104.64 -2100.71 1211.27 -49.96 -28.83z"/>
  <path class="fil2" d="M910.74 1584.26c0,-12.46 8.72,-27.67 19.49,-33.95l2061.74 -1188.7c10.76,-6.29 19.48,-1.28 19.48,11.18l0 104.64 -2100.71 1211.27 -0 -104.44z"/>
  <path class="fil14" d="M910.74 1584.26c0,-12.46 8.72,-27.67 19.49,-33.95l2061.74 -1188.7c10.76,-6.29 19.48,-1.28 19.48,11.18l0 104.64 -2100.71 1211.27 -0 -104.44z"/>
  <path class="fil2" d="M916.43 1564.94c-3.52,6.14 -5.69,13.09 -5.69,19.32l0 104.44 -49.92 -28.8 0 -104.53c0,-6.23 2.17,-13.09 5.69,-19.23l49.92 28.8z"/>
  <path class="fil15" d="M916.43 1564.94c-3.52,6.14 -5.69,13.09 -5.69,19.32l0 104.44 -49.92 -28.8 0 -104.53c0,-6.23 2.17,-13.09 5.69,-19.23l49.92 28.8z"/>
  <path class="fil16" d="M2919.77 472.69c0,11.69 8.21,16.43 18.33,10.59 10.13,-5.85 18.33,-20.06 18.33,-31.76 0,-11.69 -8.21,-16.43 -18.33,-10.59 -10.13,5.85 -18.33,20.06 -18.33,31.76z"/>
  <path class="fil17" d="M2846.44 515.03c0,11.69 8.21,16.43 18.33,10.59 10.13,-5.85 18.33,-20.06 18.33,-31.76 0,-11.69 -8.21,-16.43 -18.33,-10.59 -10.13,5.85 -18.33,20.06 -18.33,31.76z"/>
  <path class="fil18" d="M2773.1 557.37c0,11.69 8.21,16.43 18.33,10.58 10.13,-5.84 18.33,-20.06 18.33,-31.76 0,-11.69 -8.21,-16.43 -18.33,-10.58 -10.13,5.84 -18.33,20.06 -18.33,31.76z"/>
  <path class="fil19" d="M910.74 1688.73l0.01 1547.58c-0.01,20.6 22.31,33.58 40.16,23.28l37.44 -21.62 459.07 -264.7 0 -1594.02 -536.68 309.45 -0 0.03z"/>
  <polygon class="fil19" points="1484.09,1405.39 1484.09,2908.51 2967.4,2052.12 2967.4,549 "/>
  <g id="_1057133896">
   <path class="fil20" d="M1324.57 1560.87l-342.36 197.83c-6.34,3.66 -11.47,12.55 -11.47,19.87l-0 35.64c0,7.32 5.13,10.28 11.47,6.62l342.36 -197.83c6.34,-3.66 11.47,-12.55 11.47,-19.87l0.01 -35.64c0,-7.31 -5.14,-10.28 -11.47,-6.62z"/>
   <path class="fil21" d="M1324.57 1560.87l-342.36 197.83c-6.34,3.66 -11.47,12.55 -11.47,19.87l-0 35.64c0,7.32 5.13,10.28 11.47,6.62l342.36 -197.83c6.34,-3.66 11.47,-12.55 11.47,-19.87l0.01 -35.64c0,-7.31 -5.14,-10.28 -11.47,-6.62z"/>
   <path class="fil20" d="M1400.8 1575.02l-10.09 -9.71c1.99,-5.1 3.21,-10.69 3.21,-16.12 0,-8.24 -2.75,-14.56 -7.55,-17.33 -3.64,-2.11 -8.03,-1.92 -12.28,0.54 -8.89,5.14 -15.85,19.54 -15.85,32.79 0,8.24 2.75,14.55 7.54,17.32 1.68,0.97 3.51,1.45 5.41,1.45 2.24,0 4.58,-0.67 6.87,-2 3.35,-1.93 6.43,-5.18 8.96,-9.19l8.28 7.96c0.77,0.75 1.76,1.11 2.75,1.11 1.05,0 2.08,-0.41 2.87,-1.22 1.52,-1.58 1.47,-4.1 -0.12,-5.62zm-26.71 0.07l0 0c-1.75,1.01 -3.23,1.19 -4.34,0.55 -1.65,-0.95 -3.57,-4.26 -3.57,-10.44 0,-10.32 5.45,-22.19 11.88,-25.91 1.06,-0.62 2.02,-0.92 2.87,-0.92 0.54,0 1.04,0.13 1.47,0.38 1.64,0.95 3.57,4.25 3.57,10.44 0,10.32 -5.44,22.19 -11.88,25.9z"/>
  </g>
  <g id="_1057134472">
   <g>
    <g>
     <g>
      <path class="fil8" d="M979.07 1925.43l-7.68 4.43c-0.45,0.26 -0.82,-0.02 -0.82,-0.62l0 -20.79c0,-0.6 0.37,-1.31 0.82,-1.57l7.68 -4.43c0.45,-0.26 0.82,0.02 0.82,0.62l0 20.79c0,0.6 -0.37,1.3 -0.82,1.56z"/>
     </g>
     <g>
      <path class="fil8" d="M990.58 1918.79l-7.68 4.43c-0.45,0.26 -0.82,-0.02 -0.82,-0.62l0 -20.79c0,-0.6 0.37,-1.31 0.82,-1.57l7.68 -4.43c0.45,-0.26 0.82,0.02 0.82,0.62l0 20.79c0,0.6 -0.37,1.3 -0.82,1.57z"/>
     </g>
     <g>
      <path class="fil8" d="M1002.08 1912.15l-7.68 4.43c-0.45,0.26 -0.82,-0.02 -0.82,-0.62l0 -20.79c0,-0.6 0.37,-1.3 0.82,-1.56l7.68 -4.43c0.45,-0.26 0.82,0.02 0.82,0.62l0 20.79c0,0.6 -0.37,1.31 -0.82,1.57z"/>
     </g>
     <g>
      <path class="fil8" d="M979.07 1952.25l-7.68 4.43c-0.45,0.26 -0.82,-0.02 -0.82,-0.62l0 -20.79c0,-0.6 0.37,-1.31 0.82,-1.57l7.68 -4.43c0.45,-0.26 0.82,0.02 0.82,0.62l0 20.79c0,0.6 -0.37,1.3 -0.82,1.57z"/>
     </g>
     <g>
      <path class="fil8" d="M990.58 1945.6l-7.68 4.43c-0.45,0.26 -0.82,-0.02 -0.82,-0.62l0 -20.79c0,-0.6 0.37,-1.31 0.82,-1.57l7.68 -4.43c0.45,-0.26 0.82,0.02 0.82,0.62l0 20.79c0,0.6 -0.37,1.31 -0.82,1.57z"/>
     </g>
     <g>
      <path class="fil8" d="M1002.08 1938.96l-7.68 4.43c-0.45,0.26 -0.82,-0.02 -0.82,-0.62l0 -20.79c0,-0.6 0.37,-1.3 0.82,-1.56l7.68 -4.43c0.45,-0.26 0.82,0.02 0.82,0.62l0 20.79c0,0.6 -0.37,1.31 -0.82,1.57z"/>
     </g>
    </g>
    <g>
     <g>
      <path class="fil8" d="M980.29 2023.07l-9.45 -5.76c-0.36,-0.22 -0.36,-1.06 0,-1.69l9.45 -16.67c0.46,-0.81 1.12,-0.69 1.12,0.2l0 22.43c0,0.89 -0.66,1.77 -1.12,1.49z"/>
     </g>
     <g>
      <path class="fil8" d="M976.31 2010.35l12.45 -7.19 0 5.92 -12.45 7.19c-1.06,0.61 -1.92,-0.22 -1.92,-1.85 0,-1.63 0.86,-3.46 1.92,-4.07z"/>
      <polygon class="fil8" points="991.08,2001.82 995.33,1999.37 995.33,2005.28 991.08,2007.73 "/>
      <path class="fil8" d="M1006.78 1995.72l0 21.76c0,1.66 -0.86,3.46 -1.92,4.07 -1.06,0.61 -1.92,-0.19 -1.92,-1.85l0 -18.81 -5.26 3.04 0 -5.91 7.18 -4.15c1.06,-0.61 1.92,0.22 1.92,1.85z"/>
     </g>
    </g>
    <g>
     <g>
      <path class="fil8" d="M983.96 2071.85c-8.82,6.06 -14.8,22.82 -13.1,35.2 1.56,11.34 8.28,10.9 9.01,16.15 0.08,0.57 0.45,0.78 0.86,0.55l8.42 -4.78c0.41,-0.24 0.78,-0.87 0.86,-1.54 0.88,-6.93 9.47,-15.31 9.53,-32.18 0.05,-12.95 -7.04,-19.28 -15.57,-13.4z"/>
     </g>
     <path class="fil8" d="M989 2132.53l-8.13 4.69c-0.56,0.32 -1.01,-0.02 -1.01,-0.76l0 -7.48c0,-0.74 0.45,-1.6 1.01,-1.92l8.13 -4.69c0.56,-0.32 1.01,0.02 1.01,0.76l0 7.48c0,0.74 -0.45,1.6 -1.01,1.92z"/>
    </g>
    <path class="fil8" d="M985.93 1896.26c-7.49,6.15 -13.51,18.94 -14.73,31.15 -0.71,7.12 0.19,12.92 2.15,17.03l-2.73 14.2c-0.23,1.17 0.42,1.79 1.09,1.05l8.18 -8.92c3.42,1.09 7.53,0.12 11.91,-3.5 7.49,-6.19 13.55,-18.97 14.74,-31.21 1.93,-19.87 -8.43,-29.84 -20.61,-19.82zm2.94 46.54l0 0c-7.53,4.35 -13.66,-1.55 -13.66,-13.14 0,-11.6 6.13,-24.57 13.66,-28.92 7.53,-4.35 13.66,1.55 13.66,13.14 0,11.6 -6.13,24.57 -13.66,28.92z"/>
    <path class="fil8" d="M985.93 2170.21c-7.49,6.15 -13.51,18.94 -14.73,31.15 -0.71,7.12 0.19,12.92 2.15,17.03l-2.73 14.2c-0.23,1.17 0.42,1.79 1.09,1.05l8.18 -8.92c3.42,1.09 7.53,0.12 11.91,-3.5 7.49,-6.19 13.55,-18.97 14.74,-31.21 1.93,-19.87 -8.43,-29.84 -20.61,-19.82zm2.94 46.54l0 0c-7.53,4.35 -13.66,-1.55 -13.66,-13.14 0,-11.59 6.13,-24.56 13.66,-28.91 7.53,-4.35 13.66,1.55 13.66,13.14 0,11.59 -6.13,24.57 -13.66,28.91z"/>
    <g>
     <path class="fil8" d="M997.47 2270.59c0,6.13 -3.23,12.96 -7.21,15.26 -3.98,2.3 -7.21,-0.81 -7.21,-6.93 0,-6.13 3.23,-12.96 7.21,-15.26 3.98,-2.3 7.21,0.81 7.21,6.94z"/>
     <path class="fil8" d="M1009.85 2272.78c0,4.08 -2.15,8.63 -4.8,10.16 -2.65,1.53 -4.8,-0.53 -4.8,-4.62 0,-4.08 2.15,-8.63 4.8,-10.16 2.65,-1.53 4.8,0.54 4.8,4.62z"/>
     <path class="fil8" d="M998.78 2314.32l-17.02 9.83 0 -21.54c0,-4.54 2.76,-9.81 6.16,-11.77l4.7 -2.71c3.4,-1.97 6.16,0.12 6.16,4.66l0 21.54z"/>
     <path class="fil8" d="M1005.81 2285.43l-4.68 2.7 0 24.83 8.84 -5.1 0 -19.29c0,-3.06 -1.86,-4.47 -4.16,-3.14z"/>
     <path class="fil8" d="M970.68 2295.39c0,4.08 2.15,6.15 4.8,4.62 2.65,-1.53 4.8,-6.08 4.8,-10.16 0,-4.08 -2.15,-6.15 -4.8,-4.62 -2.65,1.53 -4.8,6.08 -4.8,10.16z"/>
     <path class="fil8" d="M974.72 2303.37l4.68 -2.7 0 24.83 -8.84 5.1 0 -19.29c0,-3.06 1.86,-6.61 4.16,-7.94z"/>
    </g>
   </g>
   <g>
    <path class="fil1" d="M1053.84 1876.72l200.47 -115.74c5.4,-3.12 9.77,-0.9 9.77,4.94 0,5.84 -4.38,13.11 -9.77,16.23l-200.47 115.74c-5.4,3.12 -9.77,0.9 -9.77,-4.94 0,-5.85 4.38,-13.11 9.77,-16.23z"/>
    <path class="fil1" d="M1053.84 1971.09l200.47 -115.74c5.4,-3.12 9.77,-0.9 9.77,4.94 0,5.85 -4.38,13.11 -9.77,16.23l-200.47 115.74c-5.4,3.11 -9.77,0.9 -9.77,-4.94 0,-5.85 4.38,-13.11 9.77,-16.23z"/>
    <path class="fil1" d="M1053.84 2065.44l200.47 -115.74c5.4,-3.11 9.77,-0.9 9.77,4.94 0,5.85 -4.38,13.11 -9.77,16.23l-200.47 115.74c-5.4,3.12 -9.77,0.9 -9.77,-4.94 0,-5.85 4.38,-13.11 9.77,-16.23z"/>
    <path class="fil1" d="M1053.84 2159.8l200.47 -115.74c5.4,-3.12 9.77,-0.9 9.77,4.94 0,5.85 -4.38,13.11 -9.77,16.23l-200.47 115.74c-5.4,3.12 -9.77,0.9 -9.77,-4.94 0,-5.84 4.38,-13.11 9.77,-16.23z"/>
    <path class="fil1" d="M1053.84 2254.16l200.47 -115.74c5.4,-3.12 9.77,-0.9 9.77,4.94 0,5.85 -4.38,13.11 -9.77,16.23l-200.47 115.74c-5.4,3.12 -9.77,0.9 -9.77,-4.94 0,-5.85 4.38,-13.11 9.77,-16.23z"/>
    <path class="fil8" d="M1090.51 2331.21l200.47 -115.74c5.4,-3.11 9.77,-0.9 9.77,4.95 0,5.85 -4.38,13.11 -9.77,16.23l-200.47 115.74c-5.4,3.12 -9.77,0.9 -9.77,-4.94 0,-5.85 4.38,-13.11 9.77,-16.23z"/>
    <path class="fil1" d="M1090.51 2394.95l200.47 -115.74c5.4,-3.12 9.77,-0.9 9.77,4.94 0,5.85 -4.38,13.11 -9.77,16.23l-200.47 115.74c-5.4,3.11 -9.77,0.9 -9.77,-4.95 0,-5.85 4.38,-13.11 9.77,-16.23z"/>
    <path class="fil1" d="M1090.51 2458.69l200.47 -115.74c5.4,-3.12 9.77,-0.9 9.77,4.94 0,5.85 -4.38,13.11 -9.77,16.23l-200.47 115.74c-5.4,3.11 -9.77,0.9 -9.77,-4.95 0,-5.84 4.38,-13.11 9.77,-16.23z"/>
    <path class="fil1" d="M1129.53 2499.21l200.47 -115.74c5.39,-3.12 9.77,-0.9 9.77,4.94 0,5.85 -4.37,13.11 -9.77,16.23l-200.47 115.74c-5.4,3.12 -9.77,0.9 -9.77,-4.94 0,-5.85 4.38,-13.11 9.77,-16.23z"/>
    <g>
     <path class="fil8" d="M1082.67 2554.05l16.28 -28.72c0.62,-1.1 0.62,-2.54 0,-2.92l-16.28 -9.93c-0.79,-0.48 -1.93,1.04 -1.93,2.57l0 38.65c0,1.53 1.14,1.73 1.93,0.35z"/>
    </g>
    <path class="fil1" d="M1129.53 2562.73l200.47 -115.74c5.39,-3.12 9.77,-0.9 9.77,4.94 0,5.85 -4.37,13.11 -9.77,16.23l-200.47 115.74c-5.4,3.12 -9.77,0.9 -9.77,-4.94 0,-5.85 4.38,-13.11 9.77,-16.23z"/>
    <g>
     <path class="fil8" d="M1082.67 2617.57l16.28 -28.72c0.62,-1.1 0.62,-2.54 0,-2.92l-16.28 -9.93c-0.79,-0.48 -1.93,1.04 -1.93,2.57l0 38.65c0,1.53 1.14,1.73 1.93,0.35z"/>
    </g>
    <path class="fil1" d="M1129.53 2626.25l200.47 -115.74c5.39,-3.12 9.77,-0.9 9.77,4.94 0,5.85 -4.37,13.11 -9.77,16.23l-200.47 115.74c-5.4,3.11 -9.77,0.9 -9.77,-4.94 0,-5.85 4.38,-13.11 9.77,-16.23z"/>
    <g>
     <path class="fil8" d="M1082.67 2681.09l16.28 -28.73c0.62,-1.1 0.62,-2.54 0,-2.92l-16.28 -9.93c-0.79,-0.48 -1.93,1.04 -1.93,2.57l0 38.65c0,1.53 1.14,1.73 1.93,0.35z"/>
    </g>
    <path class="fil1" d="M1129.53 2689.77l200.47 -115.74c5.39,-3.12 9.77,-0.9 9.77,4.94 0,5.85 -4.37,13.11 -9.77,16.23l-200.47 115.74c-5.4,3.11 -9.77,0.9 -9.77,-4.94 0,-5.85 4.38,-13.11 9.77,-16.23z"/>
    <g>
     <path class="fil8" d="M1082.67 2744.61l16.28 -28.73c0.62,-1.1 0.62,-2.54 0,-2.92l-16.28 -9.93c-0.79,-0.48 -1.93,1.04 -1.93,2.57l0 38.65c0,1.53 1.14,1.73 1.93,0.35z"/>
    </g>
    <path class="fil1" d="M1129.53 2753.29l200.47 -115.74c5.39,-3.11 9.77,-0.9 9.77,4.95 0,5.84 -4.37,13.11 -9.77,16.23l-200.47 115.74c-5.4,3.12 -9.77,0.9 -9.77,-4.94 0,-5.85 4.38,-13.11 9.77,-16.23z"/>
    <g>
     <path class="fil8" d="M1082.67 2808.13l16.28 -28.72c0.62,-1.1 0.62,-2.54 0,-2.92l-16.28 -9.93c-0.79,-0.48 -1.93,1.04 -1.93,2.57l0 38.65c0,1.53 1.14,1.73 1.93,0.35z"/>
    </g>
    <path class="fil1" d="M1129.53 2816.81l200.47 -115.74c5.39,-3.12 9.77,-0.9 9.77,4.94 0,5.85 -4.37,13.11 -9.77,16.23l-200.47 115.74c-5.4,3.12 -9.77,0.9 -9.77,-4.94 0,-5.85 4.38,-13.11 9.77,-16.23z"/>
    <g>
     <path class="fil8" d="M1082.67 2871.65l16.28 -28.72c0.62,-1.1 0.62,-2.54 0,-2.92l-16.28 -9.92c-0.79,-0.48 -1.93,1.04 -1.93,2.57l0 38.65c0,1.53 1.14,1.73 1.93,0.35z"/>
    </g>
    <path class="fil1" d="M1129.53 2880.33l200.47 -115.74c5.39,-3.11 9.77,-0.9 9.77,4.95 0,5.85 -4.37,13.11 -9.77,16.23l-200.47 115.74c-5.4,3.12 -9.77,0.9 -9.77,-4.94 0,-5.85 4.38,-13.11 9.77,-16.23z"/>
    <g>
     <path class="fil8" d="M1082.67 2935.17l16.28 -28.72c0.62,-1.1 0.62,-2.54 0,-2.92l-16.28 -9.93c-0.79,-0.48 -1.93,1.04 -1.93,2.57l0 38.65c0,1.53 1.14,1.73 1.93,0.35z"/>
    </g>
    <path class="fil1" d="M1129.53 2943.84l200.47 -115.74c5.39,-3.12 9.77,-0.9 9.77,4.94 0,5.85 -4.37,13.11 -9.77,16.23l-200.47 115.74c-5.4,3.12 -9.77,0.9 -9.77,-4.94 0,-5.84 4.38,-13.11 9.77,-16.23z"/>
    <g>
     <path class="fil8" d="M1082.67 2998.69l16.28 -28.72c0.62,-1.1 0.62,-2.54 0,-2.92l-16.28 -9.93c-0.79,-0.48 -1.93,1.04 -1.93,2.57l0 38.65c0,1.53 1.14,1.73 1.93,0.35z"/>
    </g>
   </g>
  </g>
  <path class="fil0" d="M1530.53 1611.53l658.89 -380.41c5.4,-3.12 9.77,-10.7 9.77,-16.93l0 -167.97c0,-6.23 -4.38,-8.76 -9.77,-5.64l-658.88 380.34c-5.4,3.12 -9.77,10.69 -9.77,16.93l0 168.04c0,6.23 4.37,8.76 9.77,5.64z"/>
  <path class="fil8" d="M1587.99 1492.99c0,-0.08 0.02,-0.21 0.06,-0.4l4.33 -18.04 -5.98 3.45c-0.14,0.08 -0.27,0.08 -0.38,-0.03 -0.1,-0.11 -0.16,-0.27 -0.16,-0.5l0 -3.26c0,-0.23 0.05,-0.45 0.16,-0.68 0.11,-0.23 0.24,-0.38 0.38,-0.47l9.58 -5.53c0.15,-0.08 0.27,-0.08 0.39,0.03 0.11,0.1 0.16,0.27 0.16,0.5l0 2.86c0,0.33 -0.1,0.92 -0.32,1.76l-4.34 18.08c-0.05,0.22 -0.13,0.43 -0.22,0.63 -0.08,0.2 -0.21,0.35 -0.36,0.44l-2.81 1.62c-0.13,0.07 -0.25,0.07 -0.34,-0.02 -0.1,-0.09 -0.14,-0.24 -0.14,-0.45z"/>
  <path class="fil8" d="M1603.97 1462.6c1,-0.58 1.86,-0.85 2.58,-0.81 0.72,0.03 1.32,0.29 1.79,0.79 0.48,0.49 0.83,1.17 1.07,2.05 0.24,0.89 0.36,1.87 0.4,2.95 0.03,0.88 0.05,1.79 0.05,2.76 0,0.97 -0.02,1.88 -0.05,2.74 -0.04,1.14 -0.17,2.28 -0.4,3.43 -0.24,1.15 -0.59,2.24 -1.07,3.29 -0.47,1.03 -1.07,1.98 -1.79,2.85 -0.72,0.86 -1.59,1.59 -2.58,2.17 -1.01,0.58 -1.86,0.85 -2.59,0.82 -0.71,-0.04 -1.32,-0.3 -1.79,-0.78 -0.48,-0.49 -0.83,-1.18 -1.06,-2.06 -0.23,-0.88 -0.37,-1.87 -0.41,-2.95 -0.03,-0.83 -0.04,-1.72 -0.04,-2.69 0,-0.97 0.02,-1.89 0.04,-2.8 0.04,-1.14 0.18,-2.27 0.41,-3.43 0.23,-1.15 0.58,-2.24 1.06,-3.28 0.48,-1.04 1.08,-2 1.79,-2.86 0.73,-0.87 1.59,-1.59 2.59,-2.17zm2.14 12.46l0 0c0.05,-1.78 0.05,-3.51 0,-5.18 -0.03,-0.51 -0.08,-0.94 -0.15,-1.34 -0.08,-0.39 -0.19,-0.7 -0.35,-0.93 -0.16,-0.22 -0.37,-0.36 -0.64,-0.39 -0.27,-0.03 -0.6,0.07 -1,0.3 -0.41,0.23 -0.74,0.51 -1.01,0.85 -0.27,0.34 -0.49,0.72 -0.64,1.13 -0.16,0.41 -0.27,0.85 -0.36,1.34 -0.07,0.48 -0.12,0.97 -0.13,1.5 -0.07,1.74 -0.07,3.47 0,5.17 0.01,0.51 0.05,0.96 0.12,1.34 0.07,0.39 0.19,0.7 0.36,0.92 0.17,0.22 0.38,0.35 0.65,0.38 0.26,0.03 0.6,-0.07 1.01,-0.31 0.39,-0.23 0.73,-0.51 1,-0.85 0.27,-0.34 0.48,-0.72 0.65,-1.13 0.17,-0.41 0.29,-0.86 0.36,-1.33 0.07,-0.48 0.12,-0.97 0.13,-1.49z"/>
  <path class="fil8" d="M1617.83 1459.13c0.04,0.81 0.04,1.58 0,2.34 -0.03,0.63 -0.1,1.25 -0.23,1.84 -0.13,0.6 -0.31,1.17 -0.58,1.73 -0.26,0.55 -0.59,1.05 -0.97,1.5 -0.39,0.45 -0.85,0.82 -1.37,1.12 -0.52,0.3 -0.98,0.45 -1.36,0.45 -0.39,-0.01 -0.71,-0.14 -0.96,-0.39 -0.26,-0.26 -0.45,-0.6 -0.58,-1.06 -0.14,-0.44 -0.21,-0.97 -0.25,-1.57 -0.02,-0.39 -0.03,-0.77 -0.03,-1.13 0,-0.36 0.02,-0.77 0.03,-1.21 0.04,-0.64 0.11,-1.24 0.25,-1.85 0.13,-0.59 0.32,-1.18 0.58,-1.72 0.25,-0.55 0.57,-1.04 0.96,-1.5 0.38,-0.45 0.84,-0.82 1.36,-1.12 0.52,-0.3 0.98,-0.46 1.37,-0.46 0.38,0.01 0.71,0.13 0.95,0.39 0.27,0.25 0.45,0.6 0.59,1.04 0.13,0.46 0.21,0.97 0.24,1.57zm5.01 -6.52l0 0c0.09,-0.24 0.19,-0.45 0.29,-0.6 0.1,-0.16 0.25,-0.3 0.42,-0.4l1.65 -0.95c0.15,-0.08 0.27,-0.09 0.35,-0.04 0.09,0.07 0.13,0.19 0.13,0.38 0,0.04 -0.01,0.1 -0.03,0.17 -0.01,0.07 -0.03,0.14 -0.05,0.22l-9.9 25.76c-0.09,0.24 -0.19,0.44 -0.29,0.6 -0.1,0.16 -0.24,0.29 -0.43,0.4l-1.64 0.95c-0.15,0.08 -0.27,0.1 -0.35,0.04 -0.09,-0.07 -0.13,-0.19 -0.13,-0.38 0,-0.04 0.01,-0.09 0.03,-0.16 0.01,-0.07 0.03,-0.14 0.06,-0.22l9.89 -25.76zm-8.97 11.01l0 0c0.03,0.51 0.1,0.88 0.21,1.08 0.11,0.21 0.32,0.22 0.61,0.05 0.3,-0.17 0.49,-0.42 0.61,-0.76 0.12,-0.33 0.18,-0.78 0.22,-1.32 0.04,-0.7 0.04,-1.38 0,-2.03 -0.04,-0.52 -0.1,-0.88 -0.22,-1.08 -0.12,-0.2 -0.31,-0.21 -0.61,-0.04 -0.29,0.17 -0.49,0.42 -0.61,0.75 -0.12,0.34 -0.19,0.78 -0.21,1.33 -0.04,0.71 -0.04,1.38 0,2.04zm13.27 0.95l0 0c0.03,0.8 0.03,1.58 0,2.34 -0.04,0.63 -0.11,1.24 -0.24,1.85 -0.12,0.59 -0.33,1.17 -0.58,1.72 -0.25,0.56 -0.58,1.05 -0.97,1.5 -0.39,0.45 -0.84,0.82 -1.36,1.12 -0.53,0.3 -0.98,0.46 -1.37,0.46 -0.39,-0.01 -0.71,-0.13 -0.96,-0.39 -0.26,-0.25 -0.44,-0.61 -0.58,-1.05 -0.13,-0.46 -0.21,-0.97 -0.24,-1.57 -0.03,-0.4 -0.04,-0.78 -0.04,-1.13 0,-0.36 0.02,-0.77 0.04,-1.22 0.03,-0.63 0.1,-1.25 0.24,-1.85 0.14,-0.61 0.32,-1.18 0.58,-1.73 0.25,-0.54 0.57,-1.05 0.96,-1.49 0.39,-0.45 0.84,-0.83 1.37,-1.13 0.52,-0.3 0.97,-0.45 1.36,-0.44 0.39,-0.01 0.71,0.13 0.96,0.38 0.26,0.26 0.45,0.6 0.58,1.06 0.13,0.45 0.21,0.97 0.25,1.57zm-3.98 4.48l0 0c0.03,0.52 0.1,0.88 0.22,1.08 0.1,0.2 0.31,0.21 0.61,0.04 0.29,-0.17 0.49,-0.42 0.61,-0.75 0.1,-0.34 0.18,-0.78 0.21,-1.33 0.04,-0.7 0.04,-1.38 0,-2.04 -0.03,-0.51 -0.1,-0.88 -0.21,-1.08 -0.12,-0.2 -0.32,-0.22 -0.61,-0.05 -0.3,0.17 -0.5,0.43 -0.61,0.76 -0.12,0.33 -0.19,0.78 -0.22,1.32 -0.04,0.7 -0.04,1.38 0,2.03z"/>
  <path class="fil8" d="M1587.88 1441.23l-6.61 -10.2c-7.26,12.33 -12.8,27.07 -15.63,42.13l10.69 -0.82c2.09,-11.13 6.2,-22 11.56,-31.11z"/>
  <path class="fil8" d="M1606.55 1421.07l0 -17.29c-9.45,5.46 -18.18,15.2 -25.28,27.25l6.61 10.2c5.25,-8.9 11.68,-16.13 18.66,-20.16z"/>
  <path class="fil8" d="M1574.76 1488.36c0,-5.28 0.56,-10.68 1.56,-16.02l-10.69 0.82c-1.36,7.23 -2.1,14.54 -2.1,21.68 0,7.15 0.74,13.59 2.1,19.25l10.69 -11.52c-1.01,-4.18 -1.56,-8.94 -1.56,-14.22z"/>
  <path class="fil20" d="M1647.46 1425.92c-2.83,-11.79 -8.37,-20.14 -15.63,-24.08 -7.1,-3.86 -15.83,-3.52 -25.28,1.94l0 17.29c6.99,-4.03 13.42,-4.24 18.66,-1.39 5.37,2.91 9.47,9.05 11.56,17.76 1.01,4.19 1.56,8.94 1.56,14.22 0,5.28 -0.56,10.68 -1.56,16.02 -2.09,11.13 -6.19,22 -11.56,31.11 -5.24,8.91 -11.68,16.13 -18.66,20.16 -6.98,4.03 -13.42,4.24 -18.66,1.39 -5.36,-2.91 -9.47,-9.05 -11.56,-17.76l-10.69 11.52c2.83,11.79 8.37,20.14 15.63,24.08 7.1,3.85 15.83,3.52 25.28,-1.94 9.45,-5.46 18.18,-15.2 25.28,-27.25 7.26,-12.33 12.8,-27.07 15.63,-42.13 1.36,-7.23 2.1,-14.54 2.1,-21.68 0,-7.15 -0.74,-13.59 -2.1,-19.25z"/>
  <path class="fil8" d="M1713.87 1378.58l200.47 -115.74c5.4,-3.12 9.77,-0.9 9.77,4.94 0,5.85 -4.38,13.11 -9.77,16.23l-200.47 115.74c-5.4,3.12 -9.77,0.9 -9.77,-4.94 0,-5.85 4.38,-13.11 9.77,-16.23z"/>
  <path class="fil1" d="M1713.87 1421.25l347.14 -200.37c5.4,-3.12 9.77,-0.9 9.77,4.94 0,5.85 -4.38,13.11 -9.77,16.23l-347.14 200.36c-5.4,3.12 -9.77,0.9 -9.77,-4.94 0,-5.85 4.38,-13.11 9.77,-16.23z"/>
  <path class="fil0" d="M2245.5 1198.67l658.89 -380.41c5.4,-3.12 9.77,-10.69 9.77,-16.92l0 -167.97c0,-6.23 -4.38,-8.76 -9.77,-5.64l-658.89 380.34c-5.4,3.11 -9.77,10.69 -9.77,16.92l0 168.04c0,6.23 4.38,8.76 9.77,5.64z"/>
  <path class="fil8" d="M2306.19 1064.72c0,-1.19 0.16,-2.36 0.49,-3.5 0.33,-1.15 0.76,-2.2 1.32,-3.18 0.55,-0.98 1.17,-1.84 1.89,-2.59 0.7,-0.77 1.43,-1.36 2.18,-1.79 0.75,-0.43 1.47,-0.68 2.19,-0.73 0.71,-0.07 1.33,0.08 1.88,0.42 0.55,0.35 0.99,0.9 1.31,1.67 0.33,0.76 0.49,1.74 0.49,2.93 0,0.6 -0.04,1.17 -0.13,1.72 -0.09,0.56 -0.2,1.1 -0.34,1.62 -0.13,0.53 -0.29,1.04 -0.47,1.54 -0.17,0.49 -0.35,0.98 -0.52,1.45l-3.8 10.31c-0.07,0.14 -0.15,0.31 -0.22,0.51 -0.09,0.2 -0.22,0.35 -0.41,0.46l-3.19 1.84c-0.12,0.07 -0.21,0.05 -0.28,-0.04 -0.08,-0.09 -0.12,-0.23 -0.12,-0.41 0,-0.11 0.01,-0.19 0.04,-0.27 0.02,-0.07 0.03,-0.14 0.07,-0.19l2.57 -7.03c-0.66,0.24 -1.29,0.32 -1.88,0.26 -0.6,-0.05 -1.12,-0.28 -1.58,-0.66 -0.45,-0.39 -0.81,-0.93 -1.07,-1.65 -0.27,-0.71 -0.41,-1.61 -0.41,-2.7zm8.03 -4.64l0 0c0,-0.4 -0.06,-0.75 -0.18,-1.02 -0.12,-0.27 -0.28,-0.47 -0.48,-0.59 -0.21,-0.12 -0.44,-0.17 -0.7,-0.15 -0.26,0.01 -0.53,0.1 -0.81,0.26 -0.28,0.16 -0.55,0.38 -0.81,0.67 -0.26,0.29 -0.49,0.6 -0.69,0.96 -0.2,0.34 -0.36,0.73 -0.48,1.14 -0.13,0.41 -0.18,0.82 -0.18,1.23 0,0.41 0.06,0.75 0.18,1.02 0.12,0.26 0.28,0.46 0.48,0.59 0.19,0.12 0.42,0.17 0.69,0.15 0.26,-0.02 0.53,-0.1 0.81,-0.26 0.28,-0.16 0.56,-0.39 0.81,-0.67 0.26,-0.28 0.48,-0.6 0.7,-0.96 0.19,-0.35 0.36,-0.74 0.48,-1.14 0.12,-0.41 0.18,-0.82 0.18,-1.23z"/>
  <path class="fil8" d="M2325.47 1045.92c1,-0.58 1.86,-0.84 2.58,-0.81 0.72,0.03 1.32,0.29 1.79,0.79 0.48,0.48 0.83,1.17 1.07,2.05 0.23,0.89 0.36,1.87 0.4,2.95 0.03,0.88 0.04,1.78 0.04,2.75 0,0.97 -0.02,1.88 -0.04,2.74 -0.04,1.14 -0.18,2.28 -0.4,3.43 -0.24,1.15 -0.59,2.24 -1.07,3.28 -0.48,1.03 -1.07,1.99 -1.79,2.85 -0.72,0.86 -1.59,1.59 -2.58,2.17 -1.01,0.58 -1.86,0.84 -2.59,0.81 -0.71,-0.04 -1.31,-0.29 -1.79,-0.78 -0.48,-0.49 -0.83,-1.18 -1.07,-2.06 -0.23,-0.88 -0.36,-1.87 -0.41,-2.95 -0.03,-0.83 -0.04,-1.72 -0.04,-2.69 0,-0.97 0.02,-1.89 0.04,-2.8 0.05,-1.14 0.18,-2.27 0.41,-3.43 0.24,-1.15 0.59,-2.24 1.07,-3.28 0.48,-1.04 1.07,-2 1.79,-2.86 0.73,-0.87 1.59,-1.59 2.59,-2.17zm2.13 12.46l0 0c0.06,-1.78 0.06,-3.5 0,-5.17 -0.02,-0.51 -0.07,-0.94 -0.14,-1.34 -0.08,-0.39 -0.19,-0.7 -0.35,-0.93 -0.16,-0.22 -0.37,-0.36 -0.64,-0.39 -0.26,-0.03 -0.6,0.07 -1,0.3 -0.41,0.23 -0.74,0.51 -1.01,0.85 -0.27,0.34 -0.48,0.72 -0.64,1.13 -0.16,0.41 -0.27,0.85 -0.36,1.34 -0.07,0.48 -0.12,0.97 -0.13,1.5 -0.07,1.74 -0.07,3.47 0,5.18 0.01,0.51 0.05,0.95 0.12,1.34 0.07,0.39 0.19,0.7 0.36,0.92 0.17,0.22 0.38,0.35 0.65,0.38 0.26,0.03 0.6,-0.07 1.01,-0.31 0.4,-0.23 0.73,-0.51 1,-0.85 0.27,-0.34 0.49,-0.72 0.65,-1.13 0.17,-0.41 0.29,-0.86 0.36,-1.34 0.07,-0.48 0.13,-0.97 0.13,-1.49z"/>
  <path class="fil8" d="M2339.33 1042.45c0.03,0.81 0.03,1.58 0,2.34 -0.03,0.63 -0.1,1.25 -0.23,1.84 -0.13,0.6 -0.32,1.17 -0.58,1.73 -0.26,0.55 -0.59,1.05 -0.97,1.5 -0.39,0.45 -0.84,0.82 -1.36,1.12 -0.52,0.3 -0.98,0.45 -1.36,0.45 -0.39,-0.01 -0.71,-0.14 -0.96,-0.39 -0.25,-0.26 -0.45,-0.6 -0.58,-1.06 -0.14,-0.44 -0.21,-0.97 -0.25,-1.57 -0.02,-0.39 -0.04,-0.77 -0.04,-1.13 0,-0.36 0.02,-0.77 0.04,-1.21 0.04,-0.63 0.1,-1.24 0.25,-1.85 0.13,-0.6 0.33,-1.18 0.58,-1.72 0.25,-0.55 0.57,-1.05 0.96,-1.5 0.38,-0.45 0.84,-0.82 1.36,-1.12 0.52,-0.3 0.98,-0.46 1.36,-0.46 0.38,0.01 0.71,0.13 0.95,0.39 0.26,0.25 0.45,0.6 0.59,1.04 0.13,0.45 0.21,0.97 0.24,1.57zm5.01 -6.53l0 0c0.09,-0.24 0.19,-0.45 0.29,-0.6 0.1,-0.16 0.25,-0.3 0.42,-0.41l1.65 -0.95c0.15,-0.08 0.26,-0.09 0.35,-0.04 0.09,0.07 0.13,0.19 0.13,0.37 0,0.05 -0.01,0.1 -0.03,0.17 -0.01,0.07 -0.03,0.14 -0.06,0.22l-9.89 25.76c-0.09,0.24 -0.19,0.44 -0.29,0.6 -0.09,0.15 -0.25,0.29 -0.43,0.4l-1.64 0.95c-0.15,0.08 -0.26,0.1 -0.35,0.04 -0.09,-0.07 -0.13,-0.19 -0.13,-0.37 0,-0.04 0.01,-0.09 0.03,-0.16 0.01,-0.07 0.03,-0.14 0.06,-0.22l9.89 -25.76zm-8.97 11.01l0 0c0.03,0.52 0.1,0.88 0.21,1.08 0.12,0.21 0.32,0.22 0.61,0.05 0.3,-0.17 0.49,-0.42 0.61,-0.76 0.11,-0.33 0.18,-0.78 0.22,-1.32 0.03,-0.7 0.03,-1.38 0,-2.04 -0.04,-0.52 -0.11,-0.88 -0.22,-1.08 -0.12,-0.2 -0.31,-0.21 -0.61,-0.04 -0.29,0.17 -0.49,0.42 -0.61,0.75 -0.12,0.34 -0.18,0.78 -0.21,1.33 -0.04,0.7 -0.04,1.38 0,2.03zm13.27 0.95l0 0c0.04,0.8 0.04,1.58 0,2.34 -0.04,0.63 -0.12,1.24 -0.24,1.85 -0.12,0.59 -0.32,1.17 -0.58,1.72 -0.26,0.56 -0.58,1.05 -0.97,1.5 -0.39,0.46 -0.84,0.82 -1.36,1.12 -0.53,0.3 -0.98,0.46 -1.37,0.45 -0.39,-0.01 -0.71,-0.13 -0.96,-0.39 -0.26,-0.25 -0.45,-0.61 -0.58,-1.05 -0.13,-0.46 -0.21,-0.97 -0.24,-1.57 -0.03,-0.4 -0.04,-0.78 -0.04,-1.13 0,-0.36 0.02,-0.77 0.04,-1.22 0.03,-0.63 0.11,-1.25 0.24,-1.85 0.13,-0.61 0.33,-1.17 0.58,-1.73 0.25,-0.54 0.57,-1.04 0.96,-1.49 0.39,-0.45 0.84,-0.83 1.37,-1.13 0.52,-0.3 0.97,-0.45 1.36,-0.44 0.39,-0.01 0.71,0.13 0.96,0.38 0.26,0.26 0.45,0.6 0.58,1.06 0.13,0.45 0.21,0.97 0.25,1.57zm-3.97 4.48l0 0c0.03,0.52 0.1,0.88 0.22,1.08 0.1,0.2 0.31,0.21 0.61,0.04 0.29,-0.17 0.49,-0.42 0.61,-0.75 0.1,-0.34 0.18,-0.78 0.2,-1.33 0.04,-0.7 0.04,-1.38 0,-2.04 -0.02,-0.52 -0.1,-0.88 -0.2,-1.08 -0.12,-0.2 -0.32,-0.22 -0.61,-0.05 -0.3,0.17 -0.5,0.43 -0.61,0.76 -0.12,0.33 -0.19,0.78 -0.22,1.32 -0.04,0.7 -0.04,1.38 0,2.04z"/>
  <path class="fil8" d="M2327.46 1004.73l0 -17.29c-9.45,5.46 -18.18,15.2 -25.28,27.25l6.61 10.2c5.25,-8.91 11.68,-16.13 18.67,-20.16z"/>
  <path class="fil20" d="M2368.37 1009.57c-2.83,-11.79 -8.37,-20.14 -15.63,-24.08 -7.1,-3.86 -15.83,-3.52 -25.28,1.94l0 17.29c6.98,-4.03 13.42,-4.24 18.66,-1.39 5.36,2.91 9.47,9.05 11.56,17.76 1.01,4.18 1.56,8.94 1.56,14.22 0,5.28 -0.56,10.68 -1.56,16.02 -2.09,11.12 -6.18,21.97 -11.54,31.07 -5.24,8.89 -11.71,16.17 -18.68,20.2 -6.99,4.03 -13.42,4.24 -18.67,1.39 -5.36,-2.91 -9.47,-9.05 -11.56,-17.76 -1.01,-4.18 -1.56,-8.94 -1.56,-14.22 0,-5.28 0.56,-10.68 1.56,-16.02 2.09,-11.13 6.19,-22 11.56,-31.11l-6.61 -10.2c-7.26,12.33 -12.8,27.07 -15.63,42.13 -1.36,7.23 -2.11,14.54 -2.11,21.68 0,7.15 0.74,13.59 2.11,19.25 2.83,11.79 8.37,20.14 15.63,24.08 7.1,3.86 15.83,3.52 25.28,-1.94 9.45,-5.46 18.18,-15.2 25.28,-27.25l-0.01 -0.02 0.01 0.02c7.26,-12.33 12.8,-27.07 15.63,-42.13 1.36,-7.23 2.1,-14.54 2.1,-21.68 0,-7.14 -0.74,-13.59 -2.1,-19.25z"/>
  <path class="fil8" d="M2434.62 962.23l200.47 -115.74c5.4,-3.12 9.77,-0.9 9.77,4.94 0,5.85 -4.38,13.11 -9.77,16.23l-200.47 115.74c-5.39,3.12 -9.77,0.9 -9.77,-4.94 0,-5.85 4.38,-13.11 9.77,-16.23z"/>
  <path class="fil1" d="M2434.62 1004.91l347.14 -200.37c5.4,-3.11 9.77,-0.9 9.77,4.95 0,5.85 -4.38,13.11 -9.77,16.23l-347.15 200.36c-5.39,3.12 -9.77,0.9 -9.77,-4.94 0,-5.85 4.38,-13.11 9.77,-16.23z"/>
  <path class="fil8" d="M1597.66 1657.59l140.61 -81.43c5.4,-3.12 9.77,-0.9 9.77,4.94 0,5.85 -4.37,13.11 -9.77,16.23l-140.61 81.42c-5.4,3.12 -9.77,0.9 -9.77,-4.94 0,-5.84 4.38,-13.11 9.77,-16.23z"/>
  <path class="fil1" d="M2909.28 952.92l0.05 0 -0.05 0zm-4.14 2.39l0 0 0.01 1073.92c0,3.01 -2.65,7.6 -5.26,9.11l-1370.09 790.99 -0.01 -1073.92c0,-3.01 2.65,-7.6 5.26,-9.11l17.12 -9.88c8.14,-4.7 14.29,-15.34 14.29,-24.74l0 -62.11c0,-3.01 2.65,-7.6 5.26,-9.11l196.7 -113.53 0 57.73c0,10.51 7.26,16.01 14.43,16.01 2.97,0 5.95,-0.86 8.88,-2.54l1113.41 -642.8zm-1132.58 569.21l0 0 0.05 0 -0.05 0zm1136.2 -580.58l0 0c-1.31,0 -2.8,0.43 -4.37,1.34l-1117.18 645c-1.57,0.91 -3.05,1.34 -4.37,1.34 -3.2,0 -5.41,-2.56 -5.41,-6.98l0 -62.11c0,-4.42 -2.2,-6.98 -5.41,-6.98 -1.32,0 -2.8,0.43 -4.37,1.33l-200.47 115.74c-5.4,3.11 -9.77,10.69 -9.77,16.93l0 62.11c0,6.23 -4.38,13.81 -9.77,16.92l-17.12 9.89c-5.4,3.12 -9.77,10.69 -9.77,16.93l0.01 1078.31c0,4.42 2.2,6.98 5.41,6.98 1.31,0 2.79,-0.43 4.36,-1.34l1373.86 -793.2c5.4,-3.12 9.77,-10.7 9.77,-16.93l-0.01 -1078.31c0,-4.42 -2.2,-6.98 -5.41,-6.98z"/>
  <g id="_1057112080">
   <path class="fil1" d="M1609.1 1802.28c-1.71,0 -3.34,-0.41 -4.79,-1.25 -3.25,-1.88 -5.12,-5.61 -5.12,-10.24l0 -40.94c0,-7.78 5.29,-16.93 12.03,-20.83l108.95 -62.82c4.01,-2.31 8.17,-2.56 11.43,-0.68 3.25,1.88 5.12,5.61 5.12,10.23l0 40.94c0,7.79 -5.28,16.94 -12.04,20.83l-108.94 62.83c-2.23,1.28 -4.5,1.93 -6.64,1.93zm6.64 -65.44l0 0c-4,2.31 -7.52,8.39 -7.52,13.01l0 40.94c0,1.55 0.42,2.31 0.61,2.42 0.19,0.1 1.06,0.09 2.39,-0.68l108.95 -62.83c4.01,-2.31 7.52,-8.39 7.52,-13.01l0 -40.94c0,-1.55 -0.42,-2.3 -0.61,-2.41 -0.18,-0.12 -1.05,-0.09 -2.4,0.68l-108.94 62.82z"/>
   <path class="fil1" d="M1622.21 1753.7l71 -41.21c3.6,-2.08 6.51,-0.6 6.51,3.3 0,3.9 -2.91,8.74 -6.51,10.81l-71.01 41.21c-3.6,2.08 -6.51,0.6 -6.51,-3.29 0,-3.9 2.91,-8.74 6.51,-10.81z"/>
   <g>
    <path class="fil8" d="M1709.73 1705.75l5.89 8.36c0.22,0.32 0.66,0.06 0.89,-0.51l5.89 -15.15c0.28,-0.73 0.02,-1.4 -0.44,-1.14l-11.77 6.8c-0.47,0.27 -0.73,1.24 -0.45,1.65z"/>
   </g>
  </g>
  <g id="_1057112872">
   <g>
    <g>
     <path class="fil2" d="M1594.1 2198.99c5.2,-3 9.42,-0.57 9.42,5.44 0,6.01 -4.22,13.32 -9.42,16.32 -5.2,3 -9.42,0.57 -9.42,-5.44 0,-6.01 4.22,-13.32 9.42,-16.32z"/>
    </g>
    <g>
     <path class="fil2" d="M1667.44 2114.31c5.2,-3 9.42,-0.57 9.42,5.44 0,6.01 -4.22,13.32 -9.42,16.32 -5.2,3 -9.42,0.57 -9.42,-5.44 0,-6.01 4.22,-13.31 9.42,-16.32z"/>
    </g>
    <g>
     <path class="fil2" d="M1740.77 2071.97c5.2,-3.01 9.42,-0.57 9.42,5.44 0,6.01 -4.22,13.32 -9.42,16.32 -5.2,3 -9.42,0.57 -9.42,-5.44 0,-6.01 4.22,-13.32 9.42,-16.32z"/>
    </g>
    <g>
     <path class="fil2" d="M1814.11 2048.23c5.2,-3 9.42,-0.57 9.42,5.44 0,6.01 -4.22,13.32 -9.42,16.32 -5.2,3 -9.42,0.57 -9.42,-5.44 0,-6.01 4.22,-13.32 9.42,-16.32z"/>
    </g>
    <g>
     <path class="fil2" d="M1887.53 1971.98c5.2,-3 9.42,-0.57 9.42,5.44 0,6.01 -4.22,13.32 -9.42,16.32 -5.2,3 -9.42,0.57 -9.42,-5.44 0,-6.01 4.22,-13.32 9.42,-16.32z"/>
    </g>
    <g>
     <path class="fil2" d="M1960.79 1944.94c5.2,-3 9.42,-0.57 9.42,5.44 0,6.01 -4.22,13.32 -9.42,16.32 -5.2,3 -9.42,0.57 -9.42,-5.44 0,-6.01 4.22,-13.32 9.42,-16.32z"/>
    </g>
    <g>
     <path class="fil2" d="M2034.11 1860.26c5.2,-3.01 9.42,-0.57 9.42,5.44 0,6.01 -4.22,13.32 -9.42,16.32 -5.2,3 -9.42,0.57 -9.42,-5.44 0,-6.01 4.22,-13.32 9.42,-16.32z"/>
    </g>
    <g>
     <path class="fil2" d="M2107.46 1839.09c5.2,-3 9.42,-0.57 9.42,5.44 0,6.01 -4.22,13.32 -9.42,16.32 -5.2,3 -9.42,0.57 -9.42,-5.44 0,-6.01 4.22,-13.32 9.42,-16.32z"/>
    </g>
    <g>
     <path class="fil2" d="M2180.79 1606.22c5.2,-3 9.42,-0.57 9.42,5.44 0,6.01 -4.22,13.32 -9.42,16.32 -5.2,3 -9.42,0.57 -9.42,-5.44 0,-6.01 4.22,-13.32 9.42,-16.32z"/>
    </g>
    <g>
     <path class="fil2" d="M2254.13 1733.24c5.2,-3 9.42,-0.57 9.42,5.44 0,6.01 -4.22,13.32 -9.42,16.32 -5.2,3 -9.42,0.57 -9.42,-5.44 0,-6.01 4.22,-13.31 9.42,-16.32z"/>
    </g>
    <g>
     <path class="fil2" d="M2327.47 1733.24c5.2,-3 9.42,-0.57 9.42,5.44 0,6.01 -4.22,13.32 -9.42,16.32 -5.2,3 -9.42,0.57 -9.42,-5.44 0,-6.01 4.22,-13.31 9.42,-16.32z"/>
    </g>
    <g>
     <path class="fil2" d="M2400.81 1733.24c5.2,-3 9.42,-0.57 9.42,5.44 0,6.01 -4.22,13.32 -9.42,16.32 -5.2,3 -9.42,0.57 -9.42,-5.44 0,-6.01 4.22,-13.32 9.42,-16.32z"/>
    </g>
    <g>
     <path class="fil2" d="M2474.14 1606.22c5.2,-3 9.42,-0.57 9.42,5.44 0,6.01 -4.22,13.32 -9.42,16.32 -5.2,3 -9.42,0.57 -9.42,-5.44 0,-6.01 4.22,-13.32 9.42,-16.32z"/>
    </g>
    <g>
     <path class="fil2" d="M2547.48 1581.89c5.2,-3 9.42,-0.57 9.42,5.44 0,6.01 -4.22,13.32 -9.42,16.32 -5.2,3 -9.42,0.57 -9.42,-5.44 0,-6.01 4.22,-13.32 9.42,-16.32z"/>
    </g>
    <g>
     <path class="fil2" d="M2621.07 1479.19c5.2,-3.01 9.42,-0.57 9.42,5.44 0,6.01 -4.22,13.32 -9.42,16.32 -5.2,3 -9.42,0.57 -9.42,-5.44 0,-6.01 4.22,-13.32 9.42,-16.32z"/>
    </g>
    <g>
     <path class="fil2" d="M2694.15 1479.19c5.2,-3.01 9.42,-0.57 9.42,5.44 0,6.01 -4.22,13.32 -9.42,16.32 -5.2,3 -9.42,0.57 -9.42,-5.44 0,-6.01 4.22,-13.32 9.42,-16.32z"/>
    </g>
    <g>
     <path class="fil2" d="M2767.49 1479.19c5.2,-3.01 9.42,-0.57 9.42,5.44 0,6.01 -4.22,13.32 -9.42,16.32 -5.2,3 -9.42,0.57 -9.42,-5.44 0,-6.01 4.22,-13.32 9.42,-16.32z"/>
    </g>
    <g>
     <path class="fil2" d="M2840.83 1436.86c5.2,-3 9.42,-0.57 9.42,5.44 0,6.01 -4.22,13.32 -9.42,16.32 -5.2,3 -9.42,0.57 -9.42,-5.44 0,-6.01 4.22,-13.32 9.42,-16.32z"/>
    </g>
   </g>
   <g>
    <path class="fil2" d="M1593.91 2212.24c-0.53,0 -1.06,-0.19 -1.48,-0.56 -0.94,-0.82 -1.04,-2.24 -0.22,-3.18l74.05 -85.1c0.16,-0.18 0.35,-0.35 0.57,-0.48l72.81 -42.03 73.23 -23.77 72.94 -75.85c0.24,-0.25 0.53,-0.44 0.84,-0.55l72.8 -26.83 72.97 -84.25c0.29,-0.33 0.66,-0.57 1.08,-0.69l72.16 -20.83 72.98 -231.71c0.26,-0.85 1.01,-1.47 1.9,-1.57 0.82,-0.09 1.76,0.34 2.2,1.12l72.68 125.89 72.22 -0.1 71.86 0.1 72.68 -125.89c0.28,-0.48 0.72,-0.84 1.24,-1.02l72.64 -24.1 72.91 -102.09c0.42,-0.59 1.1,-0.94 1.83,-0.94l146.07 0.01 72.83 -42.04c1.05,-0.63 2.44,-0.26 3.09,0.82 0.61,1.08 0.25,2.46 -0.83,3.08l-73.35 42.34c-0.34,0.2 -0.73,0.3 -1.13,0.3l-145.51 -0.01 -72.67 101.75c-0.27,0.39 -0.67,0.68 -1.12,0.83l-72.53 24.07 -72.9 126.28c-0.41,0.7 -1.16,1.13 -1.96,1.13l-73.16 -0.1 -73.52 0.1c-0.8,0 -1.55,-0.43 -1.96,-1.13l-70.76 -122.58 -71.79 227.98c-0.23,0.72 -0.8,1.28 -1.53,1.49l-72.68 20.98 -72.91 84.19c-0.26,0.29 -0.57,0.51 -0.93,0.64l-72.85 26.85 -72.97 75.88c-0.27,0.27 -0.58,0.47 -0.94,0.58l-73.33 23.75 -72.05 41.65 -73.8 84.82c-0.45,0.51 -1.08,0.78 -1.7,0.78z"/>
   </g>
  </g>
  <g id="_852268688">
   <path class="fil1" d="M1594.1 2256.73c-1.56,0 -3.08,-0.81 -3.92,-2.26 -1.25,-2.16 -0.51,-4.92 1.65,-6.17l1246.73 -719.8c2.15,-1.24 4.92,-0.51 6.16,1.65 1.25,2.16 0.51,4.92 -1.65,6.17l-1246.73 719.8c-0.71,0.41 -1.48,0.6 -2.25,0.6z"/>
   <g>
    <g>
     <g>
      <g>
       <path class="fil2" d="M1594.1 2156.65c5.2,-3.01 9.42,-0.57 9.42,5.44 0,6.01 -4.22,13.32 -9.42,16.32 -5.2,3 -9.42,0.57 -9.42,-5.44 0,-6.01 4.22,-13.32 9.42,-16.32z"/>
      </g>
      <g>
       <path class="fil2" d="M1667.44 2029.63c5.2,-3 9.42,-0.57 9.42,5.44 0,6.01 -4.22,13.32 -9.42,16.32 -5.2,3 -9.42,0.57 -9.42,-5.44 0,-6.01 4.22,-13.31 9.42,-16.32z"/>
      </g>
      <g>
       <path class="fil2" d="M1740.77 2013.77c5.2,-3 9.42,-0.57 9.42,5.44 0,6.01 -4.22,13.32 -9.42,16.32 -5.2,3 -9.42,0.57 -9.42,-5.44 0,-6.01 4.22,-13.32 9.42,-16.32z"/>
      </g>
      <g>
       <path class="fil2" d="M1814.11 1860.26c5.2,-3.01 9.42,-0.57 9.42,5.44 0,6.01 -4.22,13.32 -9.42,16.32 -5.2,3 -9.42,0.57 -9.42,-5.44 0,-6.01 4.22,-13.32 9.42,-16.32z"/>
      </g>
      <g>
       <path class="fil2" d="M1887.53 1902.6c5.2,-3 9.42,-0.57 9.42,5.44 0,6.01 -4.22,13.31 -9.42,16.32 -5.2,3 -9.42,0.57 -9.42,-5.44 0,-6.01 4.22,-13.32 9.42,-16.32z"/>
      </g>
      <g>
       <path class="fil2" d="M1960.8 1881.43c5.2,-3 9.42,-0.57 9.42,5.44 0,6.01 -4.22,13.32 -9.42,16.32 -5.2,3.01 -9.42,0.57 -9.42,-5.44 0,-6.01 4.22,-13.32 9.42,-16.32z"/>
      </g>
      <g>
       <path class="fil2" d="M2034.11 1817.92c5.2,-3 9.42,-0.57 9.42,5.44 0,6.01 -4.22,13.31 -9.42,16.32 -5.2,3 -9.42,0.57 -9.42,-5.44 0,-6.01 4.22,-13.32 9.42,-16.32z"/>
      </g>
      <g>
       <path class="fil2" d="M2107.45 1733.24c5.2,-3 9.42,-0.57 9.42,5.44 0,6.01 -4.22,13.32 -9.42,16.32 -5.2,3 -9.42,0.57 -9.42,-5.44 0,-6.01 4.22,-13.31 9.42,-16.32z"/>
      </g>
      <g>
       <path class="fil2" d="M2180.79 1712.07c5.2,-3 9.42,-0.57 9.42,5.44 0,6.01 -4.22,13.32 -9.42,16.32 -5.2,3 -9.42,0.57 -9.42,-5.44 0,-6.01 4.22,-13.32 9.42,-16.32z"/>
      </g>
      <g>
       <path class="fil2" d="M2254.13 1648.56c5.2,-3 9.42,-0.57 9.42,5.44 0,6.01 -4.22,13.32 -9.42,16.32 -5.2,3 -9.42,0.57 -9.42,-5.44 0,-6.01 4.22,-13.32 9.42,-16.32z"/>
      </g>
      <g>
       <path class="fil2" d="M2327.47 1648.56c5.2,-3 9.42,-0.57 9.42,5.44 0,6.01 -4.22,13.32 -9.42,16.32 -5.2,3 -9.42,0.57 -9.42,-5.44 0,-6.01 4.22,-13.32 9.42,-16.32z"/>
      </g>
      <g>
       <path class="fil2" d="M2400.81 1479.19c5.2,-3 9.42,-0.57 9.42,5.44 0,6.01 -4.22,13.32 -9.42,16.32 -5.2,3 -9.42,0.57 -9.42,-5.44 0,-6.01 4.22,-13.31 9.42,-16.32z"/>
      </g>
      <g>
       <path class="fil2" d="M2474.14 1563.28c5.2,-3.01 9.42,-0.57 9.42,5.44 0,6.01 -4.22,13.32 -9.42,16.32 -5.2,3 -9.42,0.57 -9.42,-5.44 0,-6.01 4.22,-13.32 9.42,-16.32z"/>
      </g>
      <g>
       <path class="fil2" d="M2547.48 1479.19c5.2,-3 9.42,-0.57 9.42,5.44 0,6.01 -4.22,13.31 -9.42,16.32 -5.2,3 -9.42,0.57 -9.42,-5.44 0,-6.01 4.22,-13.32 9.42,-16.32z"/>
      </g>
      <g>
       <path class="fil2" d="M2620.81 1436.86c5.2,-3 9.42,-0.57 9.42,5.44 0,6.01 -4.22,13.32 -9.42,16.32 -5.2,3 -9.42,0.57 -9.42,-5.44 0,-6.01 4.22,-13.32 9.42,-16.32z"/>
      </g>
      <g>
       <path class="fil2" d="M2694.15 1436.85c5.2,-3.01 9.42,-0.57 9.42,5.44 0,6.01 -4.22,13.32 -9.42,16.32 -5.2,3 -9.42,0.57 -9.42,-5.44 0,-6.01 4.22,-13.32 9.42,-16.32z"/>
      </g>
      <g>
       <path class="fil2" d="M2767.49 1394.51c5.2,-3 9.42,-0.57 9.42,5.44 0,6.01 -4.22,13.32 -9.42,16.32 -5.2,3 -9.42,0.57 -9.42,-5.44 0,-6.01 4.22,-13.32 9.42,-16.32z"/>
      </g>
      <g>
       <path class="fil2" d="M2840.83 1394.51c5.2,-3 9.42,-0.57 9.42,5.44 0,6.01 -4.22,13.32 -9.42,16.32 -5.2,3 -9.42,0.57 -9.42,-5.44 0,-6.01 4.22,-13.32 9.42,-16.32z"/>
      </g>
     </g>
     <g>
      <path class="fil2" d="M1594.1 2169.79c-0.39,0 -0.78,-0.09 -1.13,-0.31 -1.08,-0.63 -1.45,-2 -0.82,-3.08l73.86 -127.33c0.32,-0.55 0.85,-0.94 1.48,-1.08l71.72 -15.31 72.85 -152.52c0.27,-0.56 0.77,-1 1.37,-1.18 0.62,-0.19 1.26,-0.1 1.8,0.2l72.6 41.91 71.85 -20.82 72.86 -63.13 73.2 -84.51c0.28,-0.33 0.65,-0.57 1.08,-0.69l72.87 -21.03 72.96 -63.18c0.41,-0.36 0.94,-0.55 1.48,-0.55l71.86 0 72.75 -168c0.31,-0.72 0.96,-1.22 1.73,-1.34 0.76,-0.13 1.54,0.17 2.05,0.75l71.63 82.71 71.63 -82.71c0.17,-0.19 0.36,-0.35 0.58,-0.48l73.59 -42.49c0.34,-0.2 0.73,-0.3 1.13,-0.3l72.73 0 72.56 -41.89c0.34,-0.2 0.73,-0.3 1.13,-0.3l73.35 0c1.24,0 2.26,1.01 2.26,2.26 0,1.25 -1.02,2.26 -2.26,2.26l-72.74 0 -72.56 41.89c-0.35,0.2 -0.73,0.3 -1.13,0.3l-72.73 0 -72.75 42 -73.08 84.4c-0.86,0.99 -2.56,0.99 -3.42,0l-70.98 -81.97 -71.91 166.07c-0.36,0.83 -1.17,1.36 -2.07,1.36l-72.5 0 -72.7 62.96c-0.25,0.21 -0.54,0.37 -0.85,0.46l-72.7 20.99 -72.99 84.23 -73.46 63.68c-0.25,0.21 -0.54,0.37 -0.85,0.46l-73.26 21.22c-0.59,0.16 -1.23,0.09 -1.75,-0.22l-71.31 -41.17 -72.28 151.32c-0.3,0.63 -0.88,1.09 -1.57,1.23l-71.84 15.34 -73.35 126.46c-0.41,0.72 -1.17,1.13 -1.95,1.13z"/>
     </g>
    </g>
    <g>
     <g>
      <g>
       <path class="fil22" d="M1594.1 2156.65c5.2,-3.01 9.42,-0.57 9.42,5.44 0,6.01 -4.22,13.32 -9.42,16.32 -5.2,3 -9.42,0.57 -9.42,-5.44 0,-6.01 4.22,-13.32 9.42,-16.32z"/>
      </g>
      <g>
       <path class="fil22" d="M1667.44 2029.63c5.2,-3 9.42,-0.57 9.42,5.44 0,6.01 -4.22,13.32 -9.42,16.32 -5.2,3 -9.42,0.57 -9.42,-5.44 0,-6.01 4.22,-13.31 9.42,-16.32z"/>
      </g>
      <g>
       <path class="fil22" d="M1740.77 2013.77c5.2,-3 9.42,-0.57 9.42,5.44 0,6.01 -4.22,13.32 -9.42,16.32 -5.2,3 -9.42,0.57 -9.42,-5.44 0,-6.01 4.22,-13.32 9.42,-16.32z"/>
      </g>
      <g>
       <path class="fil22" d="M1814.11 1860.26c5.2,-3.01 9.42,-0.57 9.42,5.44 0,6.01 -4.22,13.32 -9.42,16.32 -5.2,3 -9.42,0.57 -9.42,-5.44 0,-6.01 4.22,-13.32 9.42,-16.32z"/>
      </g>
      <g>
       <path class="fil22" d="M1887.53 1902.6c5.2,-3 9.42,-0.57 9.42,5.44 0,6.01 -4.22,13.31 -9.42,16.32 -5.2,3 -9.42,0.57 -9.42,-5.44 0,-6.01 4.22,-13.32 9.42,-16.32z"/>
      </g>
      <g>
       <path class="fil22" d="M1960.8 1881.43c5.2,-3 9.42,-0.57 9.42,5.44 0,6.01 -4.22,13.32 -9.42,16.32 -5.2,3.01 -9.42,0.57 -9.42,-5.44 0,-6.01 4.22,-13.32 9.42,-16.32z"/>
      </g>
      <g>
       <path class="fil22" d="M2034.11 1817.92c5.2,-3 9.42,-0.57 9.42,5.44 0,6.01 -4.22,13.31 -9.42,16.32 -5.2,3 -9.42,0.57 -9.42,-5.44 0,-6.01 4.22,-13.32 9.42,-16.32z"/>
      </g>
      <g>
       <path class="fil22" d="M2107.45 1733.24c5.2,-3 9.42,-0.57 9.42,5.44 0,6.01 -4.22,13.32 -9.42,16.32 -5.2,3 -9.42,0.57 -9.42,-5.44 0,-6.01 4.22,-13.31 9.42,-16.32z"/>
      </g>
      <g>
       <path class="fil22" d="M2180.79 1712.07c5.2,-3 9.42,-0.57 9.42,5.44 0,6.01 -4.22,13.32 -9.42,16.32 -5.2,3 -9.42,0.57 -9.42,-5.44 0,-6.01 4.22,-13.32 9.42,-16.32z"/>
      </g>
      <g>
       <path class="fil22" d="M2254.13 1648.56c5.2,-3 9.42,-0.57 9.42,5.44 0,6.01 -4.22,13.32 -9.42,16.32 -5.2,3 -9.42,0.57 -9.42,-5.44 0,-6.01 4.22,-13.32 9.42,-16.32z"/>
      </g>
      <g>
       <path class="fil22" d="M2327.47 1648.56c5.2,-3 9.42,-0.57 9.42,5.44 0,6.01 -4.22,13.32 -9.42,16.32 -5.2,3 -9.42,0.57 -9.42,-5.44 0,-6.01 4.22,-13.32 9.42,-16.32z"/>
      </g>
      <g>
       <path class="fil22" d="M2400.81 1479.19c5.2,-3 9.42,-0.57 9.42,5.44 0,6.01 -4.22,13.32 -9.42,16.32 -5.2,3 -9.42,0.57 -9.42,-5.44 0,-6.01 4.22,-13.31 9.42,-16.32z"/>
      </g>
      <g>
       <path class="fil22" d="M2474.14 1563.28c5.2,-3.01 9.42,-0.57 9.42,5.44 0,6.01 -4.22,13.32 -9.42,16.32 -5.2,3 -9.42,0.57 -9.42,-5.44 0,-6.01 4.22,-13.32 9.42,-16.32z"/>
      </g>
      <g>
       <path class="fil22" d="M2547.48 1479.19c5.2,-3 9.42,-0.57 9.42,5.44 0,6.01 -4.22,13.31 -9.42,16.32 -5.2,3 -9.42,0.57 -9.42,-5.44 0,-6.01 4.22,-13.32 9.42,-16.32z"/>
      </g>
      <g>
       <path class="fil22" d="M2620.81 1436.86c5.2,-3 9.42,-0.57 9.42,5.44 0,6.01 -4.22,13.32 -9.42,16.32 -5.2,3 -9.42,0.57 -9.42,-5.44 0,-6.01 4.22,-13.32 9.42,-16.32z"/>
      </g>
      <g>
       <path class="fil22" d="M2694.15 1436.85c5.2,-3.01 9.42,-0.57 9.42,5.44 0,6.01 -4.22,13.32 -9.42,16.32 -5.2,3 -9.42,0.57 -9.42,-5.44 0,-6.01 4.22,-13.32 9.42,-16.32z"/>
      </g>
      <g>
       <path class="fil22" d="M2767.49 1394.51c5.2,-3 9.42,-0.57 9.42,5.44 0,6.01 -4.22,13.32 -9.42,16.32 -5.2,3 -9.42,0.57 -9.42,-5.44 0,-6.01 4.22,-13.32 9.42,-16.32z"/>
      </g>
      <g>
       <path class="fil22" d="M2840.83 1394.51c5.2,-3 9.42,-0.57 9.42,5.44 0,6.01 -4.22,13.32 -9.42,16.32 -5.2,3 -9.42,0.57 -9.42,-5.44 0,-6.01 4.22,-13.32 9.42,-16.32z"/>
      </g>
     </g>
     <g>
      <path class="fil22" d="M1594.1 2169.79c-0.39,0 -0.78,-0.09 -1.13,-0.31 -1.08,-0.63 -1.45,-2 -0.82,-3.08l73.86 -127.33c0.32,-0.55 0.85,-0.94 1.48,-1.08l71.72 -15.31 72.85 -152.52c0.27,-0.56 0.77,-1 1.37,-1.18 0.62,-0.19 1.26,-0.1 1.8,0.2l72.6 41.91 71.85 -20.82 72.86 -63.13 73.2 -84.51c0.28,-0.33 0.65,-0.57 1.08,-0.69l72.87 -21.03 72.96 -63.18c0.41,-0.36 0.94,-0.55 1.48,-0.55l71.86 0 72.75 -168c0.31,-0.72 0.96,-1.22 1.73,-1.34 0.76,-0.13 1.54,0.17 2.05,0.75l71.63 82.71 71.63 -82.71c0.17,-0.19 0.36,-0.35 0.58,-0.48l73.59 -42.49c0.34,-0.2 0.73,-0.3 1.13,-0.3l72.73 0 72.56 -41.89c0.34,-0.2 0.73,-0.3 1.13,-0.3l73.35 0c1.24,0 2.26,1.01 2.26,2.26 0,1.25 -1.02,2.26 -2.26,2.26l-72.74 0 -72.56 41.89c-0.35,0.2 -0.73,0.3 -1.13,0.3l-72.73 0 -72.75 42 -73.08 84.4c-0.86,0.99 -2.56,0.99 -3.42,0l-70.98 -81.97 -71.91 166.07c-0.36,0.83 -1.17,1.36 -2.07,1.36l-72.5 0 -72.7 62.96c-0.25,0.21 -0.54,0.37 -0.85,0.46l-72.7 20.99 -72.99 84.23 -73.46 63.68c-0.25,0.21 -0.54,0.37 -0.85,0.46l-73.26 21.22c-0.59,0.16 -1.23,0.09 -1.75,-0.22l-71.31 -41.17 -72.28 151.32c-0.3,0.63 -0.88,1.09 -1.57,1.23l-71.84 15.34 -73.35 126.46c-0.41,0.72 -1.17,1.13 -1.95,1.13z"/>
     </g>
    </g>
   </g>
   <g>
    <path class="fil1" d="M1632.52 1842.47l71.01 -41.21c3.6,-2.08 6.51,-0.6 6.51,3.3 0,3.89 -2.91,8.74 -6.51,10.81l-71.01 41.21c-3.6,2.08 -6.51,0.6 -6.51,-3.3 0,-3.89 2.91,-8.74 6.51,-10.81z"/>
    <g>
     <path class="fil2" d="M1594.1 1860.27c5.2,-3 9.42,-0.57 9.42,5.44 0,6.01 -4.22,13.32 -9.42,16.32 -5.2,3 -9.42,0.57 -9.42,-5.44 0,-6.01 4.22,-13.32 9.42,-16.32z"/>
     <path class="fil22" d="M1594.1 1860.27c5.2,-3 9.42,-0.57 9.42,5.44 0,6.01 -4.22,13.32 -9.42,16.32 -5.2,3 -9.42,0.57 -9.42,-5.44 0,-6.01 4.22,-13.32 9.42,-16.32z"/>
    </g>
   </g>
   <g>
    <path class="fil23" d="M1632.52 1884.69l71.01 -41.21c3.6,-2.08 6.51,-0.6 6.51,3.29 0,3.9 -2.91,8.74 -6.51,10.81l-71.01 41.21c-3.6,2.08 -6.51,0.6 -6.51,-3.3 0,-3.9 2.91,-8.74 6.51,-10.81z"/>
    <g>
     <path class="fil24" d="M1594.1 1902.6c5.2,-3 9.42,-0.57 9.42,5.44 0,6.01 -4.22,13.32 -9.42,16.32 -5.2,3 -9.42,0.57 -9.42,-5.44 0,-6.01 4.22,-13.32 9.42,-16.32z"/>
    </g>
   </g>
  </g>
  <g id="_843942584">
   <g>
    <g>
     <path class="fil24" d="M1594.1 2466.79c-0.56,0 -1.14,-0.21 -1.57,-0.63 -0.9,-0.87 -0.92,-2.3 -0.05,-3.19l37.22 -38.27 36.53 -4.63 36.88 -47.67 36.93 5.07 35.88 -32.4 36.63 -21.96 37.34 -51.76 37.09 11.63 35.63 -31.84c0.92,-0.84 2.34,-0.75 3.19,0.18 0.83,0.93 0.75,2.36 -0.18,3.19l-37.55 33.55 -36.42 -11.42 -36.39 50.11 -36.67 21.93 -37.09 33.54 -36.42 -5 -36.44 47.08 -36.81 4.66 -36.11 37.12c-0.45,0.46 -1.03,0.69 -1.62,0.69z"/>
    </g>
    <g>
     <path class="fil25" d="M1608.6 2342.96c0.24,-0.25 0.56,-0.52 0.94,-0.82 0.38,-0.31 0.7,-0.53 1,-0.7 2,-1.15 3.85,-1.73 5.55,-1.67 1.7,0.03 3.17,0.59 4.41,1.67 1.22,1.08 2.19,2.63 2.89,4.64 0.7,2.03 1.05,4.44 1.05,7.25 0,2.81 -0.35,5.63 -1.05,8.44 -0.7,2.83 -1.67,5.5 -2.89,8 -1.24,2.51 -2.71,4.76 -4.41,6.76 -1.69,1.99 -3.54,3.58 -5.55,4.73 -2.01,1.15 -3.86,1.72 -5.56,1.67 -1.69,-0.04 -3.16,-0.6 -4.4,-1.67 -1.23,-1.08 -2.2,-2.63 -2.9,-4.65 -0.7,-2.01 -1.04,-4.42 -1.04,-7.25 0,-1.59 0.12,-3.15 0.35,-4.65 0.23,-1.51 0.54,-2.98 0.92,-4.41 0.38,-1.44 0.79,-2.84 1.26,-4.21 0.46,-1.37 0.92,-2.69 1.39,-3.94l9.77 -27.79c0.18,-0.37 0.38,-0.83 0.59,-1.37 0.21,-0.53 0.57,-0.94 1.07,-1.23l3.07 -1.76c0.32,-0.19 0.57,-0.16 0.78,0.09 0.2,0.25 0.3,0.62 0.3,1.11 0,0.27 -0.04,0.51 -0.09,0.71 -0.05,0.19 -0.11,0.37 -0.18,0.52l-7.24 20.53zm-6.88 23.46l0 0c0,1.66 0.21,3.11 0.62,4.36 0.41,1.25 1,2.24 1.75,2.96 0.76,0.72 1.67,1.11 2.76,1.17 1.09,0.06 2.33,-0.31 3.68,-1.09 1.36,-0.79 2.57,-1.83 3.67,-3.15 1.1,-1.32 2.02,-2.79 2.77,-4.37 0.75,-1.59 1.33,-3.24 1.75,-4.97 0.41,-1.71 0.61,-3.4 0.61,-5.06 0,-1.65 -0.2,-3.1 -0.61,-4.36 -0.41,-1.25 -1,-2.24 -1.75,-2.96 -0.75,-0.72 -1.67,-1.11 -2.77,-1.16 -1.09,-0.06 -2.31,0.3 -3.67,1.08 -1.36,0.79 -2.59,1.84 -3.68,3.16 -1.09,1.31 -2,2.78 -2.76,4.36 -0.75,1.59 -1.33,3.24 -1.75,4.97 -0.41,1.73 -0.62,3.42 -0.62,5.06z"/>
     <path class="fil25" d="M1633.55 2353.18c0.18,0.78 0.42,1.52 0.75,2.2 0.32,0.71 0.8,1.2 1.45,1.52 0.64,0.32 1.5,0.39 2.55,0.23 1.06,-0.18 2.42,-0.74 4.11,-1.71 1.11,-0.64 2.16,-1.46 3.17,-2.45 1,-0.99 1.88,-2.13 2.64,-3.45 0.75,-1.31 1.35,-2.75 1.79,-4.3 0.45,-1.55 0.67,-3.24 0.67,-5.06 0,-1.76 -0.21,-3.14 -0.63,-4.12 -0.44,-0.99 -1.02,-1.65 -1.75,-1.97 -0.73,-0.32 -1.61,-0.35 -2.6,-0.12 -1,0.26 -2.09,0.72 -3.27,1.39l-4.45 2.57c-0.4,0.23 -0.74,0.21 -1.02,-0.07 -0.28,-0.27 -0.43,-0.7 -0.43,-1.32l0 -2.96c0,-0.51 0.1,-1.01 0.3,-1.54 0.19,-0.53 0.38,-1 0.57,-1.45l9.65 -21.61 -15.45 8.92c-0.4,0.23 -0.74,0.21 -1.02,-0.07 -0.28,-0.27 -0.43,-0.71 -0.43,-1.32l0 -2.96c0,-0.62 0.15,-1.22 0.43,-1.82 0.28,-0.62 0.63,-1.02 1.02,-1.25l21.14 -12.21c0.4,-0.23 0.73,-0.2 1.02,0.07 0.28,0.27 0.42,0.71 0.42,1.32l0 2.97c0,0.5 -0.09,1.03 -0.26,1.6 -0.18,0.56 -0.41,1.16 -0.71,1.76l-9.49 21.26c1.79,-0.98 3.43,-1.49 4.91,-1.55 1.49,-0.05 2.75,0.34 3.81,1.18 1.06,0.85 1.88,2.15 2.47,3.86 0.59,1.73 0.89,3.88 0.89,6.47 0,2.82 -0.36,5.55 -1.07,8.19 -0.72,2.64 -1.68,5.07 -2.87,7.27 -1.2,2.2 -2.61,4.19 -4.23,5.96 -1.63,1.76 -3.36,3.17 -5.18,4.23 -2.4,1.37 -4.46,2.14 -6.2,2.29 -1.73,0.16 -3.17,-0.15 -4.29,-0.91 -1.13,-0.75 -1.97,-1.84 -2.52,-3.25 -0.56,-1.41 -0.85,-3.01 -0.89,-4.81 0,-0.5 0.12,-0.99 0.35,-1.49 0.23,-0.48 0.51,-0.84 0.84,-1.01l2.46 -1.43c0.4,-0.23 0.71,-0.23 0.94,0 0.24,0.22 0.38,0.53 0.46,0.93z"/>
     <path class="fil25" d="M1665.48 2334.74c0.18,0.79 0.43,1.51 0.75,2.22 0.32,0.69 0.81,1.2 1.45,1.51 0.64,0.32 1.5,0.39 2.55,0.21 1.06,-0.16 2.42,-0.73 4.11,-1.71 1.11,-0.63 2.16,-1.45 3.17,-2.43 1,-1 1.88,-2.15 2.63,-3.46 0.75,-1.31 1.36,-2.76 1.8,-4.29 0.45,-1.56 0.67,-3.24 0.67,-5.06 0,-1.76 -0.21,-3.14 -0.64,-4.14 -0.43,-0.98 -1.02,-1.64 -1.75,-1.96 -0.73,-0.32 -1.6,-0.35 -2.6,-0.1 -1,0.25 -2.1,0.7 -3.27,1.39l-4.46 2.57c-0.39,0.22 -0.73,0.19 -1.01,-0.08 -0.29,-0.27 -0.43,-0.71 -0.43,-1.32l0 -2.98c0,-0.49 0.1,-1.01 0.3,-1.53 0.19,-0.53 0.38,-1.01 0.57,-1.45l9.65 -21.6 -15.45 8.92c-0.4,0.23 -0.73,0.19 -1.02,-0.07 -0.28,-0.28 -0.42,-0.72 -0.42,-1.32l0 -2.98c0,-0.6 0.14,-1.21 0.42,-1.82 0.29,-0.6 0.63,-1.02 1.02,-1.25l21.14 -12.2c0.4,-0.23 0.73,-0.2 1.02,0.07 0.28,0.28 0.43,0.72 0.43,1.32l0 2.97c0,0.5 -0.1,1.03 -0.27,1.6 -0.18,0.58 -0.41,1.16 -0.71,1.78l-9.49 21.26c1.79,-0.99 3.42,-1.5 4.9,-1.56 1.49,-0.06 2.76,0.35 3.82,1.19 1.06,0.84 1.88,2.13 2.47,3.86 0.59,1.72 0.89,3.88 0.89,6.47 0,2.8 -0.36,5.54 -1.07,8.18 -0.72,2.65 -1.68,5.06 -2.87,7.27 -1.2,2.21 -2.61,4.19 -4.24,5.95 -1.62,1.77 -3.35,3.18 -5.17,4.23 -2.4,1.39 -4.47,2.15 -6.2,2.29 -1.75,0.16 -3.17,-0.14 -4.3,-0.9 -1.12,-0.76 -1.96,-1.83 -2.52,-3.25 -0.56,-1.42 -0.85,-3.02 -0.88,-4.81 0,-0.5 0.12,-1 0.35,-1.49 0.23,-0.48 0.51,-0.83 0.83,-1.02l2.47 -1.42c0.4,-0.23 0.71,-0.22 0.94,-0.01 0.23,0.23 0.38,0.55 0.45,0.93z"/>
    </g>
    <g>
     <path class="fil23" d="M1600.74 2495.94l316.87 -183.63c3.6,-2.08 6.51,-0.6 6.51,3.29 0,3.9 -2.91,8.74 -6.51,10.81l-316.87 183.63c-3.6,2.08 -6.51,0.6 -6.51,-3.3 0,-3.89 2.92,-8.74 6.51,-10.81z"/>
    </g>
    <g>
     <path class="fil23" d="M1600.74 2284.12l71 -41.21c3.6,-2.08 6.51,-0.6 6.51,3.3 0,3.89 -2.91,8.74 -6.51,10.81l-71.01 41.21c-3.6,2.08 -6.51,0.6 -6.51,-3.3 0,-3.89 2.92,-8.74 6.51,-10.81z"/>
    </g>
   </g>
   <g>
    <g>
     <path class="fil24" d="M1594.1 2720.62c-0.56,0 -1.14,-0.21 -1.57,-0.64 -0.9,-0.87 -0.92,-2.3 -0.05,-3.19l37.22 -38.27 36.77 -4.65 37.04 -32.37 35.7 -9.73 37.22 -74.09 37.32 18.28 36 -31.72 0.61 -0.13 35.74 -6.78 36.07 -62.39c0.63,-1.09 2.02,-1.45 3.09,-0.83 1.08,0.63 1.45,2.01 0.83,3.09l-37.11 64.19 -37.16 7.04 -37.33 32.9 -36.02 -17.64 -36.11 71.91 -37.14 10.12 -36.79 32.46 -36.58 4.64 -36.11 37.12c-0.45,0.46 -1.03,0.69 -1.62,0.69z"/>
    </g>
    <g>
     <path class="fil22" d="M1594.1 2720.62c-0.56,0 -1.14,-0.21 -1.57,-0.64 -0.9,-0.87 -0.92,-2.3 -0.05,-3.19l37.22 -38.27 36.77 -4.65 37.04 -32.37 35.7 -9.73 37.22 -74.09 37.32 18.28 36 -31.72 0.61 -0.13 35.74 -6.78 36.07 -62.39c0.63,-1.09 2.02,-1.45 3.09,-0.83 1.08,0.63 1.45,2.01 0.83,3.09l-37.11 64.19 -37.16 7.04 -37.33 32.9 -36.02 -17.64 -36.11 71.91 -37.14 10.12 -36.79 32.46 -36.58 4.64 -36.11 37.12c-0.45,0.46 -1.03,0.69 -1.62,0.69z"/>
    </g>
    <g>
     <path class="fil8" d="M1612.84 2630.7c0,0.61 -0.14,1.21 -0.42,1.82 -0.29,0.61 -0.63,1.02 -1.02,1.25l-2.2 1.27c-0.4,0.23 -0.73,0.2 -1.02,-0.07 -0.28,-0.27 -0.42,-0.71 -0.42,-1.32l0 -45.52 -8.69 15.18c-0.32,0.63 -0.68,1 -1.07,1.12 -0.4,0.12 -0.71,0.04 -0.97,-0.27l-1.28 -1.82c-0.25,-0.34 -0.35,-0.84 -0.3,-1.49 0.05,-0.62 0.25,-1.23 0.57,-1.8l11.48 -20.19c0.29,-0.49 0.57,-0.85 0.86,-1.07 0.28,-0.21 0.56,-0.41 0.85,-0.57l2.2 -1.27c0.4,-0.23 0.73,-0.2 1.02,0.07 0.28,0.27 0.42,0.71 0.42,1.32l0 53.37z"/>
     <path class="fil8" d="M1636.29 2588.99c1.08,-2.11 1.88,-4.09 2.42,-5.94 0.54,-1.85 0.8,-4.02 0.8,-6.49 0,-2.93 -0.56,-5.04 -1.67,-6.36 -1.1,-1.31 -2.86,-1.27 -5.25,0.12 -1.25,0.72 -2.32,1.61 -3.19,2.66 -0.88,1.07 -1.61,2.25 -2.2,3.54 -0.58,1.29 -1.05,2.67 -1.39,4.12 -0.33,1.43 -0.62,2.87 -0.84,4.32 -0.1,0.67 -0.28,1.24 -0.56,1.73 -0.27,0.48 -0.55,0.81 -0.83,0.97l-2.48 1.43c-0.32,0.19 -0.59,0.17 -0.83,-0.05 -0.23,-0.23 -0.34,-0.59 -0.34,-1.08 0.03,-2.05 0.34,-4.29 0.91,-6.73 0.57,-2.42 1.39,-4.8 2.47,-7.11 1.07,-2.34 2.39,-4.49 3.94,-6.5 1.56,-1.99 3.34,-3.58 5.34,-4.73 1.97,-1.14 3.7,-1.67 5.2,-1.6 1.51,0.08 2.76,0.61 3.76,1.64 1,1.01 1.77,2.44 2.28,4.29 0.52,1.85 0.78,3.99 0.78,6.42 0,1.76 -0.09,3.4 -0.27,4.94 -0.18,1.54 -0.47,3.07 -0.88,4.6 -0.41,1.53 -0.94,3.09 -1.59,4.68 -0.64,1.58 -1.43,3.27 -2.36,5.07l-11.96 24.1 16.42 -9.48c0.39,-0.23 0.73,-0.2 1.02,0.07 0.28,0.27 0.43,0.71 0.43,1.32l0 2.97c0,0.61 -0.15,1.22 -0.43,1.82 -0.29,0.61 -0.63,1.02 -1.02,1.25l-23.12 13.35c-0.39,0.23 -0.73,0.21 -1.01,-0.07 -0.29,-0.27 -0.44,-0.71 -0.44,-1.32l0 -2.96c0,-0.62 0.1,-1.18 0.28,-1.73 0.18,-0.55 0.48,-1.25 0.91,-2.11l15.72 -31.13z"/>
     <path class="fil8" d="M1678.73 2559.04c0.04,2.45 0.05,4.77 0.05,6.95 0,2.18 -0.02,4.51 -0.05,7.02 -0.03,3.21 -0.32,6.37 -0.89,9.47 -0.55,3.1 -1.37,5.99 -2.48,8.66 -1.11,2.7 -2.52,5.1 -4.21,7.23 -1.7,2.14 -3.73,3.9 -6.09,5.26 -2.36,1.37 -4.39,1.95 -6.09,1.78 -1.69,-0.18 -3.1,-0.95 -4.21,-2.36 -1.12,-1.39 -1.95,-3.31 -2.49,-5.78 -0.57,-2.46 -0.85,-5.27 -0.89,-8.45 -0.04,-2.47 -0.05,-4.78 -0.05,-6.96 0,-2.18 0.02,-4.51 0.05,-7.01 0.04,-3.23 0.32,-6.38 0.89,-9.49 0.55,-3.1 1.37,-5.99 2.49,-8.66 1.1,-2.67 2.52,-5.1 4.21,-7.26 1.7,-2.18 3.73,-3.94 6.09,-5.31 2.36,-1.36 4.39,-1.94 6.09,-1.73 1.69,0.19 3.1,1.01 4.21,2.4 1.11,1.39 1.94,3.31 2.48,5.78 0.57,2.46 0.86,5.27 0.89,8.46zm-22.32 26.85l0 0c0.07,5.18 0.83,8.6 2.29,10.24 1.45,1.64 3.57,1.65 6.36,0.04 2.79,-1.6 4.91,-4.06 6.35,-7.38 1.45,-3.32 2.21,-7.6 2.28,-12.88 0.03,-2.5 0.05,-4.84 0.05,-7.02 0,-2.18 -0.02,-4.5 -0.05,-6.95 -0.07,-5.2 -0.83,-8.63 -2.28,-10.3 -1.45,-1.67 -3.56,-1.69 -6.35,-0.09 -2.79,1.61 -4.91,4.09 -6.36,7.43 -1.46,3.34 -2.21,7.64 -2.29,12.93 -0.04,2.49 -0.05,4.83 -0.05,7.01 0,2.18 0.02,4.49 0.05,6.96z"/>
    </g>
    <g>
     <path class="fil1" d="M1600.74 2749.76l316.87 -183.63c3.6,-2.08 6.51,-0.6 6.51,3.3 0,3.89 -2.91,8.74 -6.51,10.81l-316.87 183.63c-3.6,2.08 -6.51,0.6 -6.51,-3.29 0,-3.9 2.92,-8.74 6.51,-10.81z"/>
    </g>
    <g>
     <path class="fil1" d="M1600.74 2537.94l71 -41.21c3.6,-2.08 6.51,-0.6 6.51,3.29 0,3.9 -2.91,8.74 -6.51,10.81l-71.01 41.21c-3.6,2.08 -6.51,0.6 -6.51,-3.3 0,-3.89 2.92,-8.74 6.51,-10.81z"/>
    </g>
   </g>
   <g>
    <g>
     <path class="fil2" d="M2034.12 2212.22c-0.66,0 -1.32,-0.29 -1.76,-0.85 -0.78,-0.98 -0.62,-2.4 0.35,-3.17l36.67 -29.26 36.93 -42.19 37.48 -5.43 35.76 -8.07 37.02 -43.73 36.44 6.44 36.54 -57.87 37.14 0.59 35.92 -32.11c0.93,-0.82 2.35,-0.75 3.19,0.18 0.83,0.93 0.75,2.35 -0.18,3.19l-37.25 33.29 -36.36 -0.59 -36.8 58.3 -36.89 -6.51 -36.32 42.9 -37.41 8.44 -36.01 5.23 -36.11 41.21 -36.96 29.53c-0.41,0.34 -0.92,0.49 -1.41,0.49z"/>
    </g>
    <g>
     <path class="fil8" d="M2048.62 2088.39c0.24,-0.25 0.56,-0.52 0.93,-0.82 0.38,-0.31 0.71,-0.53 1,-0.7 2,-1.15 3.85,-1.73 5.54,-1.68 1.7,0.04 3.18,0.59 4.41,1.67 1.23,1.08 2.2,2.63 2.89,4.64 0.7,2.03 1.05,4.44 1.05,7.25 0,2.81 -0.35,5.63 -1.05,8.44 -0.7,2.83 -1.67,5.5 -2.89,8 -1.23,2.51 -2.71,4.76 -4.41,6.76 -1.69,1.99 -3.54,3.58 -5.54,4.73 -2.01,1.15 -3.86,1.72 -5.56,1.67 -1.69,-0.04 -3.16,-0.6 -4.4,-1.67 -1.23,-1.08 -2.19,-2.63 -2.9,-4.65 -0.7,-2.01 -1.04,-4.42 -1.04,-7.25 0,-1.59 0.11,-3.15 0.34,-4.65 0.23,-1.51 0.54,-2.98 0.92,-4.41 0.38,-1.44 0.8,-2.84 1.26,-4.21 0.46,-1.37 0.93,-2.69 1.39,-3.94l9.77 -27.79c0.18,-0.37 0.38,-0.83 0.59,-1.37 0.21,-0.53 0.57,-0.94 1.07,-1.23l3.07 -1.76c0.32,-0.19 0.57,-0.16 0.78,0.09 0.2,0.25 0.3,0.62 0.3,1.11 0,0.27 -0.04,0.51 -0.09,0.71 -0.05,0.19 -0.12,0.37 -0.19,0.52l-7.24 20.53zm-6.88 23.46l0 0c0,1.66 0.21,3.11 0.62,4.36 0.41,1.25 1,2.24 1.75,2.96 0.76,0.72 1.67,1.11 2.76,1.17 1.1,0.06 2.33,-0.31 3.69,-1.09 1.36,-0.79 2.57,-1.83 3.67,-3.15 1.09,-1.32 2.02,-2.79 2.77,-4.37 0.75,-1.59 1.33,-3.24 1.75,-4.97 0.4,-1.71 0.61,-3.4 0.61,-5.06 0,-1.65 -0.2,-3.1 -0.61,-4.36 -0.41,-1.25 -1,-2.24 -1.75,-2.96 -0.75,-0.72 -1.67,-1.11 -2.77,-1.16 -1.09,-0.06 -2.31,0.3 -3.67,1.08 -1.36,0.79 -2.59,1.84 -3.69,3.16 -1.09,1.31 -2,2.78 -2.76,4.36 -0.75,1.59 -1.33,3.24 -1.75,4.97 -0.4,1.73 -0.62,3.42 -0.62,5.06z"/>
     <path class="fil8" d="M2085.8 2075.11c1.07,-2.11 1.88,-4.09 2.42,-5.94 0.53,-1.85 0.8,-4.02 0.8,-6.49 0,-2.93 -0.56,-5.04 -1.67,-6.37 -1.11,-1.3 -2.87,-1.27 -5.26,0.12 -1.25,0.72 -2.31,1.61 -3.19,2.66 -0.87,1.07 -1.61,2.25 -2.2,3.54 -0.59,1.29 -1.06,2.67 -1.4,4.11 -0.34,1.43 -0.62,2.87 -0.83,4.32 -0.1,0.67 -0.29,1.24 -0.56,1.73 -0.28,0.48 -0.56,0.81 -0.84,0.97l-2.47 1.43c-0.33,0.18 -0.6,0.17 -0.84,-0.05 -0.23,-0.23 -0.34,-0.59 -0.34,-1.08 0.04,-2.05 0.34,-4.29 0.91,-6.72 0.57,-2.42 1.4,-4.8 2.47,-7.11 1.07,-2.34 2.39,-4.49 3.95,-6.5 1.55,-1.99 3.33,-3.58 5.33,-4.73 1.98,-1.14 3.7,-1.67 5.21,-1.61 1.5,0.08 2.75,0.61 3.76,1.64 1,1.02 1.76,2.44 2.28,4.29 0.52,1.85 0.78,3.98 0.78,6.42 0,1.76 -0.09,3.4 -0.26,4.94 -0.19,1.54 -0.48,3.07 -0.89,4.6 -0.4,1.53 -0.93,3.08 -1.59,4.68 -0.64,1.58 -1.43,3.27 -2.35,5.07l-11.96 24.1 16.4 -9.48c0.41,-0.23 0.74,-0.2 1.03,0.07 0.28,0.27 0.42,0.71 0.42,1.32l0 2.97c0,0.61 -0.14,1.22 -0.42,1.81 -0.29,0.61 -0.62,1.02 -1.03,1.25l-23.12 13.34c-0.39,0.23 -0.73,0.21 -1.01,-0.07 -0.29,-0.27 -0.43,-0.71 -0.43,-1.32l0 -2.96c0,-0.62 0.09,-1.18 0.27,-1.73 0.18,-0.55 0.48,-1.25 0.91,-2.11l15.72 -31.13z"/>
     <path class="fil8" d="M2122.29 2026.61c0.4,-0.23 0.73,-0.19 1.02,0.07 0.28,0.28 0.42,0.72 0.42,1.32l0 2.98c0,0.49 -0.05,1.05 -0.16,1.66 -0.11,0.62 -0.25,1.27 -0.42,1.98l-11.92 54.23c-0.14,0.56 -0.34,1.14 -0.56,1.68 -0.24,0.56 -0.57,0.94 -1.01,1.19l-2.47 1.43c-0.35,0.21 -0.66,0.19 -0.91,-0.05 -0.25,-0.24 -0.38,-0.63 -0.38,-1.18 0,-0.11 0.02,-0.25 0.03,-0.39 0.02,-0.16 0.06,-0.39 0.14,-0.7l11.96 -54.33 -17.6 10.17c-0.4,0.23 -0.74,0.2 -1.02,-0.07 -0.29,-0.28 -0.43,-0.72 -0.43,-1.32l0 -2.98c0,-0.6 0.14,-1.2 0.43,-1.82 0.28,-0.6 0.62,-1.02 1.02,-1.25l21.84 -12.61z"/>
    </g>
    <g>
     <path class="fil1" d="M2040.76 2241.37l316.87 -183.63c3.6,-2.08 6.51,-0.6 6.51,3.3 0,3.9 -2.91,8.74 -6.51,10.81l-316.87 183.63c-3.6,2.08 -6.51,0.6 -6.51,-3.3 0,-3.9 2.92,-8.74 6.51,-10.81z"/>
    </g>
    <g>
     <path class="fil1" d="M2040.76 2029.55l71.01 -41.21c3.6,-2.08 6.51,-0.6 6.51,3.29 0,3.9 -2.91,8.74 -6.51,10.81l-71.01 41.21c-3.6,2.08 -6.51,0.6 -6.51,-3.3 0,-3.9 2.92,-8.74 6.51,-10.81z"/>
    </g>
   </g>
   <g>
    <g>
     <path class="fil2" d="M2034.12 2466.05c-0.41,0 -0.81,-0.11 -1.17,-0.33 -1.07,-0.65 -1.4,-2.04 -0.76,-3.1l37.48 -61.47 37.68 6.97 35.47 -9.7 36.69 -44.76 36.45 -9.19 37.06 -66.04 37.88 11 35.6 -6.75 36.12 -32.15c0.92,-0.84 2.35,-0.76 3.18,0.18 0.83,0.93 0.75,2.35 -0.19,3.18l-37.05 32.98 -0.61 0.13 -37.29 7.07 -35.47 -10.3 -36.27 64.59 -36.89 9.32 -36.65 44.7 -0.69 0.19 -37.17 10.16 -0.51 -0.09 -35.13 -6.49 -35.86 58.81c-0.43,0.7 -1.17,1.08 -1.93,1.08z"/>
    </g>
    <g>
     <path class="fil22" d="M2034.12 2466.05c-0.41,0 -0.81,-0.11 -1.17,-0.33 -1.07,-0.65 -1.4,-2.04 -0.76,-3.1l37.48 -61.47 37.68 6.97 35.47 -9.7 36.69 -44.76 36.45 -9.19 37.06 -66.04 37.88 11 35.6 -6.75 36.12 -32.15c0.92,-0.84 2.35,-0.76 3.18,0.18 0.83,0.93 0.75,2.35 -0.19,3.18l-37.05 32.98 -0.61 0.13 -37.29 7.07 -35.47 -10.3 -36.27 64.59 -36.89 9.32 -36.65 44.7 -0.69 0.19 -37.17 10.16 -0.51 -0.09 -35.13 -6.49 -35.86 58.81c-0.43,0.7 -1.17,1.08 -1.93,1.08z"/>
    </g>
    <g>
     <path class="fil8" d="M2051.08 2359.56c-0.18,0.16 -0.42,0.34 -0.75,0.56 -0.32,0.21 -0.56,0.37 -0.7,0.45 -1.72,1 -3.39,1.53 -4.99,1.6 -1.61,0.08 -3.04,-0.35 -4.29,-1.28 -1.25,-0.93 -2.27,-2.39 -3.03,-4.37 -0.78,-1.98 -1.15,-4.54 -1.15,-7.68 0,-2.81 0.36,-5.6 1.07,-8.39 0.71,-2.78 1.69,-5.39 2.93,-7.85 1.23,-2.45 2.66,-4.64 4.29,-6.57 1.62,-1.93 3.35,-3.43 5.17,-4.48 2.07,-1.2 3.95,-1.79 5.61,-1.75 1.67,0.04 3.08,0.58 4.24,1.65 1.16,1.07 2.05,2.6 2.68,4.61 0.62,2.01 0.93,4.41 0.93,7.22 0,1.38 -0.13,2.85 -0.42,4.42 -0.28,1.57 -0.64,3.14 -1.06,4.71 -0.44,1.57 -0.9,3.11 -1.4,4.6 -0.5,1.52 -0.97,2.88 -1.39,4.12l-9.77 27.78c-0.19,0.39 -0.37,0.84 -0.59,1.37 -0.22,0.55 -0.57,0.95 -1.08,1.23l-3.06 1.77c-0.32,0.18 -0.58,0.16 -0.78,-0.09 -0.19,-0.24 -0.29,-0.62 -0.29,-1.11 0,-0.27 0.02,-0.5 0.07,-0.7 0.05,-0.2 0.12,-0.37 0.19,-0.52l7.56 -21.31zm6.93 -23.33l0 0c0,-1.71 -0.21,-3.18 -0.62,-4.43 -0.41,-1.24 -0.99,-2.2 -1.72,-2.85 -0.73,-0.65 -1.62,-0.97 -2.66,-0.99 -1.03,0 -2.17,0.35 -3.38,1.05 -1.25,0.72 -2.39,1.68 -3.4,2.87 -1.03,1.2 -1.9,2.55 -2.64,4.05 -0.73,1.48 -1.31,3.1 -1.71,4.81 -0.41,1.73 -0.62,3.45 -0.62,5.16 0,1.76 0.2,3.25 0.62,4.47 0.4,1.24 0.98,2.17 1.71,2.82 0.73,0.65 1.6,0.98 2.64,1 1.02,0.03 2.15,-0.34 3.4,-1.06 1.21,-0.7 2.35,-1.65 3.38,-2.87 1.04,-1.2 1.93,-2.56 2.66,-4.06 0.73,-1.5 1.31,-3.08 1.72,-4.79 0.4,-1.69 0.62,-3.43 0.62,-5.19z"/>
     <path class="fil8" d="M2071.96 2353.37c0.18,0.79 0.43,1.52 0.75,2.21 0.32,0.7 0.81,1.2 1.45,1.51 0.64,0.32 1.5,0.39 2.56,0.22 1.05,-0.17 2.42,-0.73 4.11,-1.71 1.1,-0.64 2.16,-1.45 3.16,-2.44 1.01,-0.99 1.88,-2.14 2.64,-3.45 0.75,-1.32 1.35,-2.76 1.79,-4.3 0.46,-1.55 0.68,-3.24 0.68,-5.06 0,-1.76 -0.22,-3.14 -0.64,-4.14 -0.43,-0.98 -1.01,-1.65 -1.75,-1.97 -0.74,-0.32 -1.6,-0.35 -2.61,-0.1 -1,0.25 -2.09,0.71 -3.26,1.39l-4.46 2.57c-0.39,0.23 -0.73,0.2 -1.02,-0.07 -0.29,-0.28 -0.44,-0.71 -0.44,-1.32l0 -2.97c0,-0.5 0.1,-1.01 0.3,-1.54 0.2,-0.53 0.38,-1.01 0.56,-1.45l9.66 -21.6 -15.45 8.92c-0.4,0.23 -0.73,0.2 -1.02,-0.07 -0.28,-0.28 -0.43,-0.71 -0.43,-1.32l0 -2.97c0,-0.61 0.15,-1.21 0.43,-1.81 0.29,-0.61 0.63,-1.02 1.02,-1.25l21.14 -12.21c0.4,-0.23 0.73,-0.19 1.02,0.07 0.28,0.28 0.42,0.72 0.42,1.32l0 2.98c0,0.49 -0.09,1.02 -0.27,1.59 -0.18,0.57 -0.41,1.16 -0.7,1.77l-9.5 21.26c1.8,-0.99 3.43,-1.5 4.91,-1.55 1.49,-0.06 2.76,0.34 3.81,1.18 1.06,0.84 1.88,2.14 2.48,3.86 0.58,1.73 0.88,3.88 0.88,6.47 0,2.81 -0.36,5.54 -1.08,8.18 -0.71,2.65 -1.67,5.07 -2.87,7.28 -1.2,2.2 -2.61,4.18 -4.23,5.95 -1.63,1.77 -3.35,3.18 -5.17,4.23 -2.4,1.38 -4.47,2.14 -6.21,2.29 -1.73,0.16 -3.17,-0.15 -4.29,-0.91 -1.12,-0.75 -1.97,-1.83 -2.52,-3.24 -0.56,-1.42 -0.84,-3.02 -0.88,-4.81 0,-0.51 0.11,-1 0.34,-1.5 0.23,-0.48 0.51,-0.83 0.84,-1.01l2.47 -1.42c0.4,-0.23 0.71,-0.23 0.93,-0.01 0.24,0.22 0.38,0.54 0.46,0.93z"/>
    </g>
    <g>
     <path class="fil1" d="M2040.76 2495.19l316.87 -183.63c3.6,-2.08 6.51,-0.6 6.51,3.29 0,3.9 -2.91,8.74 -6.51,10.81l-316.87 183.63c-3.6,2.08 -6.51,0.6 -6.51,-3.3 0,-3.89 2.92,-8.74 6.51,-10.81z"/>
    </g>
    <g>
     <path class="fil1" d="M2040.76 2283.37l71.01 -41.2c3.6,-2.08 6.51,-0.6 6.51,3.29 0,3.89 -2.91,8.74 -6.51,10.81l-71.01 41.21c-3.6,2.08 -6.51,0.6 -6.51,-3.29 0,-3.9 2.92,-8.74 6.51,-10.82z"/>
    </g>
   </g>
  </g>
  <path class="fil2" d="M2510.81 1800.17c15.64,-9.03 30.05,-9.5 41.8,-3.11l-41.8 112.7 0 -109.59z"/>
  <path class="fil16" d="M2469.02 1845.31c11.74,-19.94 26.16,-36.12 41.79,-45.15l0 109.59 -41.79 -64.44z"/>
  <path class="fil16" d="M2443.14 1914.97c4.69,-24.92 13.87,-49.26 25.88,-69.66l41.79 64.44 -67.67 5.22z"/>
  <path class="fil2" d="M2552.61 1797.05c12.01,6.53 21.2,20.26 25.88,39.77l-67.68 72.93 41.8 -112.7z"/>
  <path class="fil2" d="M2443.14 1982.68c-2.25,-9.37 -3.5,-20.01 -3.5,-31.83 0,-11.82 1.25,-23.91 3.5,-35.88l67.67 -5.22 -67.67 72.93z"/>
  <path class="fil2" d="M2578.49 1904.54c-4.69,24.92 -13.87,49.26 -25.88,69.66l-41.8 -64.44 67.68 -5.22z"/>
  <path class="fil2" d="M2510.81 2019.34c-15.64,9.03 -30.05,9.49 -41.79,3.11l41.79 -112.7 0 109.59z"/>
  <path class="fil2" d="M2443.14 1982.68l67.67 -72.93 -41.79 112.7c-12.01,-6.53 -21.2,-20.26 -25.88,-39.77z"/>
  <path class="fil2" d="M2578.49 1836.82c2.25,9.37 3.5,20.01 3.5,31.83 0,11.82 -1.25,23.91 -3.5,35.88l-67.68 5.22 67.68 -72.93z"/>
  <path class="fil2" d="M2552.61 1974.19c-11.75,19.94 -26.16,36.12 -41.8,45.15l0 -109.59 41.8 64.44z"/>
  <g id="_853421640">
   <path class="fil8" d="M2475.31 2075.23l71.01 -41.21c3.6,-2.08 6.51,-0.6 6.51,3.3 0,3.89 -2.91,8.74 -6.51,10.81l-71.01 41.21c-3.6,2.08 -6.51,0.6 -6.51,-3.3 0,-3.89 2.92,-8.74 6.51,-10.81z"/>
   <path class="fil1" d="M2459.65 2126.74l102.33 -59.37c3.6,-2.08 6.51,-0.6 6.51,3.3 0,3.89 -2.91,8.74 -6.51,10.81l-102.33 59.37c-3.6,2.08 -6.51,0.6 -6.51,-3.29 0,-3.9 2.92,-8.74 6.51,-10.81z"/>
   <path class="fil1" d="M2459.65 2169.18l102.33 -59.37c3.6,-2.08 6.51,-0.6 6.51,3.29 0,3.9 -2.91,8.74 -6.51,10.81l-102.33 59.37c-3.6,2.08 -6.51,0.6 -6.51,-3.3 0,-3.89 2.92,-8.74 6.51,-10.81z"/>
   <path class="fil1" d="M2459.65 2211.62l102.33 -59.37c3.6,-2.08 6.51,-0.6 6.51,3.3 0,3.9 -2.91,8.74 -6.51,10.81l-102.33 59.37c-3.6,2.08 -6.51,0.6 -6.51,-3.3 0,-3.89 2.92,-8.74 6.51,-10.81z"/>
  </g>
  <g id="_853423392">
   <g>
    <g>
     <g>
      <g>
       <path class="fil2" d="M2767.49 1651.43c15.64,-9.03 30.05,-9.5 41.8,-3.11l-41.8 112.7 0 -109.58z"/>
      </g>
      <path class="fil2" d="M2725.7 1696.57c11.75,-19.94 26.16,-36.12 41.8,-45.14l0 109.58 -41.8 -64.44z"/>
      <path class="fil2" d="M2699.82 1766.22c4.69,-24.92 13.87,-49.26 25.88,-69.66l41.8 64.44 -67.68 5.21z"/>
      <g>
       <path class="fil2" d="M2809.29 1648.31c12.01,6.53 21.19,20.26 25.88,39.77l-67.68 72.93 41.8 -112.7z"/>
      </g>
      <path class="fil2" d="M2699.82 1833.94c-2.25,-9.37 -3.5,-20.01 -3.5,-31.83 0,-11.82 1.25,-23.91 3.5,-35.88l67.68 -5.21 -67.68 72.93z"/>
      <g>
       <path class="fil2" d="M2835.17 1755.79c-4.69,24.92 -13.87,49.26 -25.88,69.66l-41.8 -64.44 67.68 -5.22z"/>
      </g>
      <g>
       <path class="fil2" d="M2767.49 1870.6c-15.64,9.03 -30.05,9.49 -41.8,3.11l41.8 -112.7 0 109.59z"/>
      </g>
      <path class="fil2" d="M2699.82 1833.94l67.68 -72.93 -41.8 112.7c-12.01,-6.53 -21.2,-20.26 -25.88,-39.77z"/>
      <path class="fil22" d="M2725.7 1696.57c-12.01,20.39 -21.2,44.73 -25.88,69.66 -2.25,11.97 -3.5,24.06 -3.5,35.88 0,11.82 1.25,22.46 3.5,31.83 4.69,19.51 13.87,33.24 25.88,39.77l41.8 -112.7 0 -109.58c-15.64,9.03 -30.05,25.2 -41.8,45.14z"/>
      <g>
       <path class="fil2" d="M2835.17 1688.08c2.25,9.37 3.5,20.01 3.5,31.83 0,11.82 -1.25,23.91 -3.5,35.88l-67.68 5.22 67.68 -72.93z"/>
      </g>
      <g>
       <path class="fil2" d="M2809.29 1825.45c-11.75,19.94 -26.16,36.12 -41.8,45.15l0 -109.59 41.8 64.44z"/>
      </g>
     </g>
    </g>
   </g>
   <g>
    <path class="fil8" d="M2731.99 1927.04l71.01 -41.21c3.6,-2.08 6.51,-0.6 6.51,3.3 0,3.9 -2.92,8.74 -6.51,10.81l-71.01 41.21c-3.6,2.08 -6.51,0.6 -6.51,-3.29 0,-3.9 2.92,-8.74 6.51,-10.81z"/>
    <path class="fil1" d="M2716.33 1978.55l102.32 -59.37c3.6,-2.08 6.51,-0.6 6.51,3.3 0,3.89 -2.91,8.74 -6.51,10.81l-102.33 59.37c-3.6,2.08 -6.51,0.6 -6.51,-3.29 0,-3.9 2.91,-8.74 6.51,-10.81z"/>
    <path class="fil1" d="M2716.33 2020.99l102.32 -59.37c3.6,-2.08 6.51,-0.6 6.51,3.3 0,3.89 -2.91,8.74 -6.51,10.81l-102.33 59.37c-3.6,2.08 -6.51,0.6 -6.51,-3.29 0,-3.9 2.91,-8.74 6.51,-10.81z"/>
    <path class="fil1" d="M2716.33 2063.42l102.32 -59.37c3.6,-2.08 6.51,-0.6 6.51,3.29 0,3.9 -2.91,8.74 -6.51,10.81l-102.33 59.37c-3.6,2.08 -6.51,0.6 -6.51,-3.3 0,-3.89 2.91,-8.74 6.51,-10.81z"/>
   </g>
  </g>
  <path class="fil5" d="M2766.12 3120.81c1.16,-34.75 -21.81,-77.83 -51.33,-96.21 -14.58,-9.08 -28,-10.41 -38.02,-5.26l-0.02 -0.03c-60.39,30.3 -484.82,302.47 -511.96,315.86l-0.35 0.18c-5.05,2.71 -8.31,8.76 -8.61,17.5 -0.59,17.52 10.99,39.23 25.86,48.48 7.45,4.64 14.31,5.27 19.38,2.54l0.39 -0.21c42.98,-23.66 461.85,-202.17 547.49,-248.1 0.01,-0.01 0.02,-0.01 0.02,-0.01 0.02,-0.01 0.04,-0.02 0.05,-0.03l-0 -0c10.02,-5.39 16.5,-17.38 17.09,-34.72z"/>
  <path class="fil26" d="M2749.43 3062.12c-9.08,-15.56 -21.16,-29.13 -34.64,-37.53 -14.53,-9.05 -27.91,-10.39 -37.91,-5.31 -2.02,1.11 -2.64,1.47 -1.23,0.67 -55.14,28.2 -371,229.71 -477.29,295.2 -0.23,0.14 -0.48,0.29 -0.7,0.43 -1.48,0.92 -2.89,1.78 -4.29,2.64 -0.43,0.26 -0.89,0.55 -1.31,0.8 -0.84,0.51 -1.62,0.99 -2.42,1.48 -0.96,0.59 -1.94,1.19 -2.85,1.74 -0.07,0.05 -0.14,0.09 -0.21,0.13 -11.24,6.86 -18.83,11.34 -21.76,12.78l-0.35 0.18c-0.92,0.49 -1.7,1.22 -2.49,1.93 -3.55,3.21 -5.86,8.41 -6.11,15.57 -0.07,1.98 0.07,4.02 0.3,6.08 0.09,0.78 0.24,1.57 0.37,2.35 0.2,1.24 0.44,2.48 0.74,3.73 0.24,0.99 0.49,1.97 0.78,2.96 0.34,1.17 0.74,2.33 1.16,3.49 0.31,0.87 0.59,1.74 0.94,2.59 0.06,0.14 0.13,0.27 0.19,0.41l589.11 -312.34z"/>
  <path class="fil20" d="M2181.6 3401.34c-14.81,-9.22 -26.34,-30.83 -25.76,-48.28 0.59,-17.45 13.07,-24.11 27.88,-14.89 14.81,9.23 26.35,30.84 25.76,48.28 -0.59,17.44 -13.07,24.11 -27.88,14.89z"/>
  <path class="fil6" d="M2054.77 3413.01c-0.45,13.4 8.41,30.01 19.79,37.1 5.66,3.53 10.87,4.03 14.74,1.99l0.01 0.01 0.05 -0.03 0.01 -0.01 102.66 -54.65c0.02,-0.01 0.04,-0.02 0.07,-0.04l0.02 -0.01 -0 -0c3.84,-2.09 6.34,-6.69 6.56,-13.36 0.45,-13.4 -8.41,-30.01 -19.79,-37.1 -5.69,-3.54 -10.93,-4.04 -14.81,-1.97l-102.64 54.64 0.01 0.01c-3.91,2.05 -6.45,6.69 -6.67,13.42z"/>
  <path class="fil7" d="M2061.44 3399.59c-3.91,2.05 -6.45,6.69 -6.67,13.42 -0.17,5.05 0.99,10.55 3.1,15.83l132.39 -70.63c-3.2,-4.66 -7.11,-8.65 -11.37,-11.3 -5.69,-3.54 -10.93,-4.04 -14.81,-1.97l-102.64 54.64 0.01 0.01z"/>
  <path class="fil5" d="M2186.47 3504.14c-0.01,-65.79 -43.47,-131.57 -130.41,-181.77 -173.88,-100.39 -455.78,-100.39 -629.67,0 -86.94,50.19 -130.41,115.98 -130.41,181.76l0 121.18c0,65.79 43.47,131.57 130.41,181.77 173.88,100.39 455.79,100.39 629.67,0 86.93,-50.19 130.41,-115.98 130.41,-181.77l0 -121.18 0 0zm-738.54 -144.48l0 0c77.65,-44.83 181.81,-69.52 293.3,-69.52 111.49,0 215.66,24.69 293.31,69.52 70.21,40.54 108.87,91.85 108.87,144.48 0,52.63 -38.67,103.94 -108.87,144.47 -77.65,44.83 -181.82,69.52 -293.31,69.52 -111.48,0 -215.64,-24.69 -293.3,-69.52 -70.21,-40.54 -108.88,-91.84 -108.88,-144.47 0,-52.64 38.66,-103.95 108.88,-144.48z"/>
  <path class="fil27" d="M1426.36 3685.91c173.88,100.39 455.78,100.39 629.67,0 173.88,-100.39 173.88,-263.15 0,-363.54 -173.88,-100.39 -455.79,-100.39 -629.67,0 -173.87,100.39 -173.87,263.15 0,363.54zm-87.34 -181.76l0 0c0,-52.64 38.66,-103.95 108.88,-144.48 77.65,-44.83 181.82,-69.52 293.3,-69.52 111.49,0 215.66,24.69 293.31,69.52 70.21,40.54 108.87,91.85 108.87,144.48 0,52.63 -38.67,103.94 -108.87,144.47 -77.66,44.83 -181.82,69.52 -293.31,69.52 -111.49,0 -215.65,-24.69 -293.3,-69.52 -70.21,-40.54 -108.88,-91.84 -108.88,-144.47z"/>
  <path class="fil20" d="M1338.99 3504.14c0,20.67 5.94,40.99 17.4,60.62 17.65,-30.57 48.74,-59.25 91.54,-83.88 77.59,-44.87 181.8,-69.58 293.31,-69.58 111.44,0 215.64,24.72 293.23,69.58 42.8,24.63 73.88,53.31 91.63,83.88 11.37,-19.63 17.31,-39.96 17.31,-60.62 0,-52.62 -38.67,-103.94 -108.93,-144.51 -77.59,-44.78 -181.8,-69.5 -293.23,-69.5 -111.52,0 -215.72,24.72 -293.31,69.5 -70.27,40.56 -108.94,91.89 -108.94,144.51z"/>
  <path class="fil28" d="M1447.89 3414.53c77.65,-44.83 181.82,-69.52 293.3,-69.52 111.49,0 215.66,24.69 293.31,69.52 57.94,33.45 94.32,74.24 105.29,117.05 -10.98,42.81 -47.36,83.6 -105.29,117.04 -77.66,44.83 -181.82,69.52 -293.31,69.52 -111.49,0 -215.65,-24.69 -293.3,-69.52 -57.93,-33.45 -94.32,-74.23 -105.3,-117.04 10.98,-42.81 47.36,-83.6 105.3,-117.05z"/>
  <path class="fil29" d="M1636.29 3754.05l0 121.08c-76.9,-10.68 -149.85,-33.33 -209.87,-68.03 -86.98,-50.21 -130.47,-116 -130.47,-181.79l0 -121.17c0,-13.26 1.81,-26.53 5.34,-39.7l0.08 0c-21.1,78.28 20.58,161.12 125.04,221.49 60.02,34.71 132.97,57.35 209.87,68.12z"/>
  <g id="_853428600">
   <g>
    <g>
     <path class="fil7" d="M3758.4 3014.14c5.27,2.13 6.39,12.29 6.74,32.43 0.27,15.25 2.93,41.9 -15.03,46.81 -17.96,4.91 -44.03,1.6 -55.14,-13.01 -13.87,-18.24 -23.16,-34.23 -43.03,-56.55 -17.24,-19.36 -35.95,-37.5 -42.48,-64.25 -5.9,-24.18 -0.3,-34.48 16.25,-41.1 22.76,-9.1 57.48,23.09 75.04,28.44 15.12,4.6 52.38,65.1 57.65,67.23z"/>
    </g>
    <g>
     <path class="fil30" d="M3758.83 2995.5l-0.56 24.71c0,0 -26.14,19.17 -62.49,0.28 -1.03,-2.4 -5.69,-35.49 -5.69,-35.49l68.73 10.5z"/>
    </g>
    <g>
     <path class="fil7" d="M3555.07 3152.05c0,0 6.61,21.65 10.01,40.53 2.7,15.01 6.49,40.08 1,51.2 -5.49,11.12 -26.06,17.91 -57.69,16.96 -20.49,-0.62 -52.74,12.58 -74.88,24.29 -22.87,12.1 -69.95,16.06 -93.77,12.71 -28.08,-3.94 -56.87,-20.92 -61.16,-32.68 -4.29,-11.76 2.03,-23.73 69.01,-50.5 0.61,-0.25 92.9,-27.97 125.8,-62.67l81.68 0.17z"/>
    </g>
    <g>
     <path class="fil30" d="M3555.67 3125.34c0,0 -0.5,18.34 -0.65,28.82 -0.15,10.48 -12.88,25.82 -44.89,23.96 -22.49,-1.31 -38.06,-7.72 -36.75,-26.23l0.6 -26.71 81.68 0.17z"/>
    </g>
    <g>
     <path class="fil6" d="M3782.28 2667.91c-9.49,-81 -26.28,-129.36 -26.28,-129.36 0,0 11.32,-110.85 17.93,-216.03 7.13,-113.62 13.75,-172.13 -8.6,-336.22 0,0 -348.35,-31.3 -357.86,100.02 -9.51,131.31 3.99,466.43 7.03,524.28 3.04,57.85 11.87,109.15 21.69,203.02 9.69,92.65 37.79,311.55 37.79,311.55 41.41,23.61 81.68,0.17 81.68,0.17 0,0 31.75,-262.28 30.54,-328.97 -1.48,-81.44 -21.99,-146.02 -21.99,-146.02 0,0 9.4,-108.24 17.67,-202.39 8.27,-94.15 15.79,-139.29 18.14,-180.28l7.99 -3.73c0,0 4.38,162.84 7.42,220.69 3.04,57.85 10.98,113.43 25.27,221.08 12.4,93.38 51.13,291.25 51.13,291.25 41.41,23.61 67,-1.46 67,-1.46 0,0 32.95,-246.59 23.46,-327.59z"/>
    </g>
    <g>
     <path class="fil7" d="M3600.02 2267.68c0,0 90.01,-41.86 135.45,-80.42 0,0 -42.68,57.36 -97.57,81.98 0,0 -23.87,201.63 -23.68,197.62l-6.67 -199.31 -7.54 0.13z"/>
    </g>
   </g>
   <g>
    <polygon class="fil30" points="3537.63,1518.23 3551.2,1638.51 3664.79,1632.78 3652.17,1492.41 "/>
    <g>
     <path class="fil6" d="M3707.62 1564.28c42.28,-1.95 63.76,4.4 82.76,40.87 19,36.48 26.43,145.46 33.04,201.65 6.61,56.19 8.26,95.84 -14.87,101.62 -23.13,5.78 -113.16,8.26 -113.16,8.26l12.23 -352.41z"/>
     <path class="fil8" d="M3778.99 1626.61c-6.13,-33.66 -50.38,-69.03 -91.82,-62.3 -9.62,1.56 -19,3.15 -28.12,4.76 -4.97,20.23 -60.42,32.89 -113.39,20.42 -15.96,4.19 -68.53,14.03 -81.82,18.45 -38.07,12.64 -53.79,50.11 -59.71,174.27 0,0 3.05,281.16 1.57,337.17 94,39.67 192.66,40.73 247.45,30.05 114.06,-22.24 128.81,-69.01 128.81,-69.01l-16.98 -128.63c0,0 27.88,-249.04 14.02,-325.17z"/>
     <path class="fil6" d="M3542.1 1557.89l0.85 7.57c0,0 32.84,8.2 69.74,0 36.9,-8.2 44.36,-18.63 44.36,-18.63l-0.77 -8.58c0,0 9.18,-3.41 14.01,10.73 4.83,14.14 5.34,17.24 5.34,17.24 0,0 4.26,25.84 -39.14,39 -62.42,18.94 -108.04,-11.8 -108.04,-11.8l-17.01 3.59c0,0 14.71,-33.92 19.17,-40.8 4.45,-6.88 10.63,-5.9 10.63,-5.9l0.85 7.57z"/>
     <g>
      <polygon class="fil8" points="3195.35,1428.92 2970.12,1546.46 3082.04,1852.47 3292.23,1734.72 "/>
      <polygon class="fil31" points="3185.01,1458.88 2996.06,1557.49 3095.11,1820.56 3271.44,1721.78 "/>
      <path class="fil9" d="M3145.15 1487.27c0,0 -1.64,-4.19 -3.66,-9.36 -2.02,-5.17 -17.75,-2.09 -35.13,6.88l-33.28 17.18c-17.38,8.97 -29.83,20.44 -27.81,25.61l3.66 9.36 96.21 -49.67z"/>
      <g>
       <path class="fil2" d="M3141.49 1449.82c-1.25,-3.23 -8.09,-2.7 -15.29,1.18l-13.03 7.03c0,0 -8.03,-20.21 -37.99,-6.22 -29.97,13.99 -23.12,37.42 -23.12,37.42 0,0 -6.19,3.41 -13.83,7.62 -7.64,4.21 -13.08,10.28 -12.15,13.57l1.68 5.95 116.02 -60.53c0,0 -1.05,-2.78 -2.3,-6.02z"/>
       <path class="fil2" d="M3128.97 1463.41c-10.79,5.3 -15.04,7.87 -11.93,15.83 3.55,9.1 6.85,15.63 6.85,15.63l-51.32 26.85c0,0 -4.27,-11.57 -6.15,-16.04 -1.87,-4.47 -5.62,-6.6 -13.79,-2.33l-3.05 -3.22 80.94 -41.26 -1.56 4.53z"/>
       <path class="fil22" d="M3128.97 1463.41c-10.79,5.3 -15.04,7.87 -11.93,15.83 3.55,9.1 6.85,15.63 6.85,15.63l-51.32 26.85c0,0 -4.27,-11.57 -6.15,-16.04 -1.87,-4.47 -5.62,-6.6 -13.79,-2.33l-3.05 -3.22 80.94 -41.26 -1.56 4.53z"/>
       <path class="fil2" d="M3147.35 1487.75c0,0 -1.64,-4.19 -3.66,-9.36 -2.02,-5.17 -17.75,-2.09 -35.13,6.89l-33.28 17.18c-17.38,8.97 -29.83,20.43 -27.8,25.6l3.66 9.36 96.21 -49.67z"/>
      </g>
     </g>
     <g>
      <g>
       <path class="fil30" d="M3463.84 1607.94c-51.99,4.52 -74.15,13.99 -113.18,84.38 -42.36,76.4 -123.8,214.65 -134.13,232.11 -14.37,24.28 -17.08,61.22 -4.68,83.53 11.58,20.83 48.33,30.36 89.99,-16.7 49.53,-55.96 141.71,-192.63 141.71,-192.63 0,0 78.3,-103.31 20.28,-190.69z"/>
      </g>
     </g>
     <path class="fil30" d="M3233.4 2023.97c-39.86,-4.83 -132.95,-131.13 -159.42,-172.39 -28.98,-45.17 -55.99,-66.88 -80.65,-85.1 -42.19,-31.17 -36.05,-79.06 -17.64,-122.95 6.37,-15.2 27.99,-5.31 27.99,-5.31l7.62 20.83 13.19 36.06c8.94,8.29 14.02,11 14.62,8.53 1.12,-4.65 -6.57,-24.05 -6.38,-44.26 0.23,-24.32 17.25,-8.33 22.34,0.19 5.09,8.53 11.03,22.4 17.98,40.18 8.5,21.77 4.98,43.8 15.33,58.64 10.35,14.84 149.23,147.91 149.23,147.91l-4.21 117.67z"/>
     <path class="fil6" d="M3473.87 1605.22c-31.5,-0.78 -69.36,4.25 -98.68,42.34 -29.31,38.09 -146.67,245.25 -146.67,245.25l-65.86 -59.03c0,0 -41.41,23.91 -50.64,71.58 0,0 31.8,50.38 59.63,80.93 27.83,30.55 58.89,51.73 84.34,42.34 25.45,-9.38 51.45,-29.56 106.27,-105.86 54.82,-76.3 114.63,-166.38 114.63,-166.38 0,0 37.77,-87.98 -3.01,-151.18z"/>
    </g>
    <g>
     <path class="fil32" d="M3457.61 1370.99c0,0 -28.36,43.03 -25.13,47.26 3.23,4.23 24.1,8.04 24.1,8.04l1.03 -55.3z"/>
    </g>
    <g>
     <path class="fil7" d="M3470.88 1398.63c-18.63,0 -33.79,-15.16 -33.79,-33.8 0,-18.63 15.16,-33.79 33.79,-33.79 18.63,0 33.79,15.16 33.79,33.79 0,18.64 -15.16,33.8 -33.79,33.8zm0 -60.07l0 0c-14.49,0 -26.27,11.78 -26.27,26.27 0,14.49 11.78,26.28 26.27,26.28 14.49,0 26.27,-11.79 26.27,-26.28 0,-14.49 -11.78,-26.27 -26.27,-26.27z"/>
    </g>
    <g>
     <path class="fil30" d="M3536.35 1251.95c-57.39,12.11 -73.96,37.33 -79.36,128.49 -5.65,95.26 4.08,125.2 16.59,138.03 8.45,8.65 55.39,10.22 79.07,3.69 29.64,-8.18 96.62,-31.91 128,-79.83 36.9,-56.37 46.6,-132.78 7.09,-164.12 -55.6,-44.11 -128.03,-31.2 -151.39,-26.27z"/>
    </g>
    <path class="fil32" d="M3538.37 1524.83l-2.66 -17.55c0,0 -27.62,15.9 -58.84,13.33 10.95,5.41 39.52,6.95 61.5,4.21z"/>
    <polygon class="fil7" points="3440.25,1357.78 3542.28,1370.99 3538.17,1378.15 3440.25,1365.45 "/>
    <g>
     <g>
      <g>
       <path class="fil7" d="M3447.2 1288.74c4.31,0.62 8.75,0.38 12.96,-0.79 -3.76,8.16 -0.2,18.55 7,23.92 7.2,5.38 17.17,6.14 25.73,3.42 -3.1,5.29 -4.13,11.76 -2.81,17.74 2.74,12.48 16.81,23.3 29.72,21.45 0.61,13.33 0.77,26.37 15.01,32.45 0,0 9.07,-35.21 38.75,-30.79 29.87,4.46 33.91,42.53 15.08,65.67 -18.71,22.99 -36.15,14.38 -36.37,14.27 1.74,0.87 2.33,12.09 2.94,14.22 1.89,6.6 4.45,13.16 7.63,19.25 6.43,12.33 15.65,23.23 26.86,31.48 15.55,11.45 34.52,19.63 53.85,14.99 16.83,-4.05 32.1,-15.62 39.23,-31.57 1.79,-4.01 3.22,-8.38 6.4,-11.4 3.89,-3.69 9.55,-4.61 14.63,-6.33 11.71,-3.97 21.5,-13.25 26.1,-24.73 4.6,-11.48 3.92,-24.95 -1.81,-35.91 14.08,-3.57 25.67,-15.55 28.78,-29.74 3.11,-14.19 -2.41,-29.92 -13.7,-39.05 16.82,-10.3 25.52,-32.25 20.32,-51.27 -4.47,-16.33 -18.04,-27.94 -33.92,-32.53 -11.59,-3.35 -7.13,-5.17 -10.72,-16.52 -2.44,-7.72 -7.07,-14.79 -13.35,-19.92 -10.82,-8.84 -26.23,-11.7 -39.5,-7.35 -2.57,-14.77 -14.39,-26.84 -28.66,-30.83 -6.48,-1.81 -13.66,-2.49 -20.26,-0.79 -4.76,1.23 -14.55,5.66 -16.34,10.21 -6.03,-5.93 -7.99,-13.77 -15.37,-19.17 -7.5,-5.49 -16.73,-8.69 -26.05,-8.66 -15.41,0.05 -30.49,8.92 -38.01,22.37 -10.34,-10.79 -25.15,-17.5 -40.08,-16.86 -14.93,0.64 -29.58,9.09 -36.54,22.32 -6.96,13.22 -5.29,30.82 4.92,41.73 -9.21,3.84 -17.66,10.28 -22.16,19.18 -4.88,9.66 -4.21,21.75 3.12,29.95 3.55,3.97 5.86,6.61 11.21,8.34 1.77,0.57 3.59,0.99 5.43,1.26z"/>
      </g>
     </g>
     <g>
      <g>
       <path class="fil7" d="M3534.2 1407.02l1.06 -39.85c-11,-0.29 -20.16,8.39 -20.45,19.4 -0.29,11 8.39,20.16 19.4,20.45z"/>
      </g>
     </g>
    </g>
   </g>
  </g>
  <g id="_853436952">
   <g>
    <path class="fil7" d="M3758.4 3014.14c5.27,2.13 6.39,12.29 6.74,32.43 0.27,15.25 2.93,41.9 -15.03,46.81 -17.96,4.91 -44.03,1.6 -55.14,-13.01 -13.87,-18.24 -23.16,-34.23 -43.03,-56.55 -17.24,-19.36 -35.95,-37.5 -42.48,-64.25 -5.9,-24.18 -0.3,-34.48 16.25,-41.1 22.76,-9.1 57.48,23.09 75.04,28.44 15.12,4.6 52.38,65.1 57.65,67.23z"/>
   </g>
   <g>
    <path class="fil30" d="M3758.83 2995.51l-0.56 24.71c0,0 -26.14,19.17 -62.49,0.28 -1.03,-2.4 -5.69,-35.49 -5.69,-35.49l68.73 10.5z"/>
   </g>
   <g>
    <path class="fil7" d="M3555.07 3152.05c0,0 6.61,21.65 10.01,40.53 2.7,15.01 6.49,40.08 1,51.2 -5.49,11.12 -26.06,17.91 -57.69,16.96 -20.49,-0.62 -52.74,12.58 -74.88,24.29 -22.87,12.1 -69.95,16.06 -93.77,12.71 -28.08,-3.94 -56.87,-20.92 -61.16,-32.68 -4.29,-11.76 2.03,-23.73 69.01,-50.5 0.61,-0.25 92.9,-27.97 125.8,-62.67l81.68 0.17z"/>
   </g>
   <g>
    <path class="fil30" d="M3555.67 3125.34c0,0 -0.5,18.34 -0.65,28.82 -0.15,10.48 -12.88,25.82 -44.89,23.96 -22.49,-1.31 -38.06,-7.72 -36.75,-26.23l0.6 -26.71 81.68 0.17z"/>
   </g>
   <g>
    <path class="fil33" d="M3782.28 2667.92c-9.49,-81 -26.28,-129.36 -26.28,-129.36 0,0 11.32,-110.85 17.93,-216.03 7.13,-113.62 13.75,-172.13 -8.6,-336.22 0,0 -348.35,-31.3 -357.86,100.02 -9.51,131.31 3.99,466.43 7.03,524.28 3.04,57.85 11.87,109.15 21.69,203.02 9.69,92.65 37.79,311.55 37.79,311.55 41.41,23.61 81.68,0.17 81.68,0.17 0,0 31.75,-262.28 30.54,-328.97 -1.48,-81.44 -21.99,-146.02 -21.99,-146.02 0,0 9.4,-108.24 17.67,-202.39 8.27,-94.15 15.79,-139.29 18.14,-180.28l7.99 -3.73c0,0 4.38,162.84 7.42,220.69 3.04,57.85 10.98,113.43 25.27,221.08 12.4,93.38 51.13,291.25 51.13,291.25 41.41,23.61 67,-1.46 67,-1.46 0,0 32.95,-246.59 23.46,-327.59z"/>
   </g>
   <g>
    <path class="fil7" d="M3600.02 2267.68c0,0 90.01,-41.86 135.45,-80.42 0,0 -42.68,57.36 -97.57,81.98 0,0 -23.87,201.63 -23.68,197.62l-6.67 -199.31 -7.54 0.13z"/>
   </g>
   <polygon class="fil30" points="3537.63,1518.23 3551.2,1638.51 3664.79,1632.78 3652.17,1492.41 "/>
   <path class="fil33" d="M3707.62 1564.28c42.28,-1.95 63.76,4.4 82.76,40.87 19,36.48 26.43,145.46 33.04,201.65 6.61,56.19 8.26,95.84 -14.87,101.62 -23.13,5.78 -113.16,8.26 -113.16,8.26l12.23 -352.41z"/>
   <path class="fil33" d="M3778.99 1626.62c-6.13,-33.66 -50.38,-69.03 -91.82,-62.3 -9.62,1.56 -19,3.15 -28.12,4.76 -4.97,20.23 -60.42,32.89 -113.39,20.42 -15.96,4.19 -68.53,14.03 -81.82,18.45 -38.07,12.64 -53.79,50.11 -59.71,174.27 0,0 3.05,281.16 1.57,337.17 94,39.67 192.66,40.73 247.45,30.05 114.06,-22.24 128.81,-69.01 128.81,-69.01l-16.98 -128.63c0,0 27.88,-249.04 14.02,-325.17z"/>
   <path class="fil33" d="M3542.1 1557.9l0.85 7.57c0,0 32.84,8.2 69.74,0 36.9,-8.2 44.36,-18.63 44.36,-18.63l-0.77 -8.58c0,0 9.18,-3.41 14.01,10.73 4.83,14.14 5.34,17.24 5.34,17.24 0,0 4.26,25.84 -39.14,39 -62.42,18.94 -108.04,-11.8 -108.04,-11.8l-17.01 3.59c0,0 14.71,-33.92 19.17,-40.8 4.45,-6.88 10.63,-5.9 10.63,-5.9l0.85 7.57z"/>
   <g>
    <polygon class="fil8" points="3195.35,1428.93 2970.12,1546.47 3082.04,1852.47 3292.23,1734.72 "/>
    <polygon class="fil31" points="3185.01,1458.89 2996.06,1557.49 3095.11,1820.57 3271.44,1721.78 "/>
    <path class="fil9" d="M3145.15 1487.27c0,0 -1.64,-4.19 -3.66,-9.36 -2.02,-5.17 -17.75,-2.09 -35.13,6.88l-33.28 17.18c-17.38,8.97 -29.83,20.44 -27.81,25.61l3.66 9.36 96.21 -49.67z"/>
    <g>
     <path class="fil2" d="M3141.49 1449.82c-1.25,-3.23 -8.09,-2.7 -15.29,1.18l-13.03 7.03c0,0 -8.03,-20.21 -37.99,-6.22 -29.97,13.99 -23.12,37.42 -23.12,37.42 0,0 -6.19,3.41 -13.83,7.62 -7.64,4.21 -13.08,10.28 -12.15,13.57l1.68 5.95 116.02 -60.53c0,0 -1.05,-2.78 -2.3,-6.02z"/>
     <path class="fil2" d="M3128.97 1463.41c-10.79,5.3 -15.04,7.87 -11.93,15.83 3.55,9.1 6.85,15.63 6.85,15.63l-51.32 26.85c0,0 -4.27,-11.57 -6.15,-16.04 -1.87,-4.47 -5.62,-6.6 -13.79,-2.33l-3.05 -3.22 80.94 -41.26 -1.56 4.53z"/>
     <path class="fil22" d="M3128.97 1463.41c-10.79,5.3 -15.04,7.87 -11.93,15.83 3.55,9.1 6.85,15.63 6.85,15.63l-51.32 26.85c0,0 -4.27,-11.57 -6.15,-16.04 -1.87,-4.47 -5.62,-6.6 -13.79,-2.33l-3.05 -3.22 80.94 -41.26 -1.56 4.53z"/>
     <path class="fil2" d="M3147.35 1487.76c0,0 -1.64,-4.19 -3.66,-9.36 -2.02,-5.17 -17.75,-2.09 -35.13,6.89l-33.28 17.18c-17.38,8.97 -29.83,20.43 -27.8,25.6l3.66 9.36 96.21 -49.67z"/>
    </g>
   </g>
   <g>
    <g>
     <path class="fil30" d="M3463.84 1607.94c-51.99,4.52 -74.15,13.99 -113.18,84.38 -42.36,76.4 -123.8,214.65 -134.13,232.11 -14.37,24.28 -17.08,61.22 -4.68,83.53 11.58,20.83 48.33,30.36 89.99,-16.7 49.53,-55.96 141.71,-192.63 141.71,-192.63 0,0 78.3,-103.31 20.28,-190.69z"/>
    </g>
   </g>
   <path class="fil30" d="M3233.4 2023.97c-39.86,-4.83 -132.95,-131.13 -159.42,-172.39 -28.98,-45.17 -55.99,-66.88 -80.65,-85.1 -42.19,-31.17 -36.05,-79.06 -17.64,-122.95 6.37,-15.2 27.99,-5.31 27.99,-5.31l7.62 20.83 13.19 36.06c8.94,8.29 14.02,11 14.62,8.53 1.12,-4.65 -6.57,-24.05 -6.38,-44.26 0.23,-24.32 17.25,-8.33 22.34,0.19 5.09,8.53 11.03,22.4 17.98,40.18 8.5,21.77 4.98,43.8 15.33,58.64 10.35,14.84 149.23,147.91 149.23,147.91l-4.21 117.67z"/>
   <path class="fil34" d="M3473.87 1605.23c-31.5,-0.78 -69.36,4.25 -98.68,42.34 -29.31,38.09 -146.67,245.25 -146.67,245.25l-65.86 -59.03c0,0 -41.41,23.91 -50.64,71.58 0,0 31.8,50.38 59.63,80.93 27.83,30.55 58.89,51.73 84.34,42.34 25.45,-9.38 51.45,-29.56 106.27,-105.86 54.82,-76.3 114.63,-166.38 114.63,-166.38 0,0 37.77,-87.98 -3.01,-151.18z"/>
   <g>
    <path class="fil32" d="M3457.61 1370.99c0,0 -28.36,43.03 -25.13,47.26 3.23,4.23 24.1,8.04 24.1,8.04l1.03 -55.3z"/>
   </g>
   <g>
    <path class="fil7" d="M3470.88 1398.64c-18.63,0 -33.79,-15.16 -33.79,-33.8 0,-18.63 15.16,-33.79 33.79,-33.79 18.63,0 33.79,15.16 33.79,33.79 0,18.64 -15.16,33.8 -33.79,33.8zm0 -60.07l0 0c-14.49,0 -26.27,11.78 -26.27,26.27 0,14.49 11.78,26.28 26.27,26.28 14.49,0 26.27,-11.79 26.27,-26.28 0,-14.49 -11.78,-26.27 -26.27,-26.27z"/>
   </g>
   <g>
    <path class="fil30" d="M3536.35 1251.95c-57.39,12.11 -73.96,37.33 -79.36,128.49 -5.65,95.26 4.08,125.2 16.59,138.03 8.45,8.65 55.39,10.22 79.07,3.69 29.64,-8.18 96.62,-31.91 128,-79.83 36.9,-56.37 46.6,-132.78 7.09,-164.12 -55.6,-44.11 -128.03,-31.2 -151.39,-26.27z"/>
   </g>
   <path class="fil32" d="M3538.37 1524.84l-2.66 -17.55c0,0 -27.62,15.9 -58.84,13.33 10.95,5.41 39.52,6.95 61.5,4.21z"/>
   <polygon class="fil7" points="3440.25,1357.79 3542.28,1370.99 3538.17,1378.16 3440.25,1365.45 "/>
   <g>
    <g>
     <g>
      <path class="fil7" d="M3447.2 1288.74c4.31,0.62 8.75,0.38 12.96,-0.79 -3.76,8.16 -0.2,18.55 7,23.92 7.2,5.38 17.17,6.14 25.73,3.42 -3.1,5.29 -4.13,11.76 -2.81,17.74 2.74,12.48 16.81,23.3 29.72,21.45 0.61,13.33 0.77,26.37 15.01,32.45 0,0 9.07,-35.21 38.75,-30.79 29.87,4.46 33.91,42.53 15.08,65.67 -18.71,22.99 -36.15,14.38 -36.37,14.27 1.74,0.87 2.33,12.09 2.94,14.22 1.89,6.6 4.45,13.16 7.63,19.25 6.43,12.33 15.65,23.23 26.86,31.48 15.55,11.45 34.52,19.63 53.85,14.99 16.83,-4.05 32.1,-15.62 39.23,-31.57 1.79,-4.01 3.22,-8.38 6.4,-11.4 3.89,-3.69 9.55,-4.61 14.63,-6.33 11.71,-3.97 21.5,-13.25 26.1,-24.73 4.6,-11.48 3.92,-24.95 -1.81,-35.91 14.08,-3.57 25.67,-15.55 28.78,-29.74 3.11,-14.19 -2.41,-29.92 -13.7,-39.05 16.82,-10.3 25.52,-32.25 20.32,-51.27 -4.47,-16.33 -18.04,-27.94 -33.92,-32.53 -11.59,-3.35 -7.13,-5.17 -10.72,-16.52 -2.44,-7.72 -7.07,-14.79 -13.35,-19.92 -10.82,-8.84 -26.23,-11.7 -39.5,-7.35 -2.57,-14.77 -14.39,-26.84 -28.66,-30.83 -6.48,-1.81 -13.66,-2.49 -20.26,-0.79 -4.76,1.23 -14.55,5.66 -16.34,10.21 -6.03,-5.93 -7.99,-13.77 -15.37,-19.17 -7.5,-5.49 -16.73,-8.69 -26.05,-8.66 -15.41,0.05 -30.49,8.92 -38.01,22.37 -10.34,-10.79 -25.15,-17.5 -40.08,-16.86 -14.93,0.64 -29.58,9.09 -36.54,22.32 -6.96,13.22 -5.29,30.82 4.92,41.73 -9.21,3.84 -17.66,10.28 -22.16,19.18 -4.88,9.66 -4.21,21.75 3.12,29.95 3.55,3.97 5.86,6.61 11.21,8.34 1.77,0.57 3.59,0.99 5.43,1.26z"/>
     </g>
    </g>
    <g>
     <g>
      <path class="fil7" d="M3534.2 1407.02l1.06 -39.85c-11,-0.29 -20.16,8.39 -20.45,19.4 -0.29,11 8.39,20.16 19.4,20.45z"/>
     </g>
    </g>
   </g>
   <path class="fil35" d="M3430.29 2760.59c0,0 94.39,20.95 149.61,-37.95 0,0 5.33,45.78 5.77,57.63 0.45,11.86 -90.4,57.13 -150.54,23.29l-2.69 -24.41 -2.14 -18.56z"/>
   <path class="fil35" d="M3640.7 2705.72c0,0 115.43,5.09 142.67,-25.02 0,0 0.53,48.32 -0.49,67.29 0,0 -71.29,29.89 -134.13,11.53l-6.34 -41.31 -1.72 -12.49z"/>
   <path class="fil35" d="M3203.13 1873.1c0,0 -38.96,49.9 -55.75,83.44l21.32 26.47 59.81 -90.2 -22.47 -20.14 -2.91 0.42z"/>
   <path class="fil35" d="M3348.61 1687.8c0,0 60.32,120.31 460.67,-5.57l5.09 39.64c0,0 -75.97,76.84 -402.8,72.5 0,0 -56.36,1.9 -88.69,-64.22l19.13 -31.66 6.6 -10.7z"/>
   <path class="fil36" d="M3348.61 1687.8c0,0 43.17,-93.49 121.71,-81.7l41.12 -9.08 15.53 -34.05c0,0 3.88,-12.97 14.27,-12.64l1.71 15.14c0,0 37.25,9.32 74.27,-1.05 37.02,-10.37 39.82,-17.58 39.82,-17.58l-0.77 -8.58c0,0 8.96,-3.74 14.89,13.33 5.93,17.06 4.46,14.65 4.46,14.65 0,0 23.26,-5.48 32.36,-1.96 0,0 47.53,-4.92 68.09,19.61 20.56,24.53 33.2,98.36 33.2,98.36 0,0 -371.05,140.93 -460.67,5.57z"/>
   <path class="fil37 str0" d="M3406.71 2098.19c0,0 89.09,35.56 152.14,35.56 63.05,0 163.8,-9.99 220.27,-74.82l-1.02 46.55c0,0 -3.84,4.15 -27.96,19.81 -24.12,15.66 -142.89,83.71 -344.8,4.19l-0.81 -23.24 2.18 -8.06z"/>
  </g>
 </g>
</svg>
